<?xml version="1.0" encoding="UTF-8"?>
<svg version="1.1" xmlns="http://www.w3.org/2000/svg" width="1024" height="1024">
<path d="M0 0 C0.51483845 24.00840367 0.90230734 48.01597596 1.13986778 72.02879524 C1.25312698 83.17976951 1.40739506 94.32730699 1.65966797 105.47607422 C1.87955527 115.19828367 2.02101397 124.91800449 2.06994689 134.64263141 C2.09854161 139.78933626 2.1652476 144.92892524 2.32606125 150.07333755 C3.2666393 181.34594571 3.2666393 181.34594571 -2.15236092 189.06651688 C-7.24673278 193.8476249 -12.88825588 196.64276443 -19.41003323 199.00559807 C-22.9793936 200.3760322 -25.81499399 202.268863 -28.94921875 204.4453125 C-29.90900635 205.06067871 -30.86879395 205.67604492 -31.85766602 206.31005859 C-33.25843384 207.20845459 -33.25843384 207.20845459 -34.6875 208.125 C-48.39120398 216.90328697 -62.14313184 225.60207424 -75.95019531 234.21679688 C-81.87403571 237.9151548 -87.78274321 241.63729211 -93.6809082 245.37646484 C-97.91655943 248.06058755 -102.16331305 250.72430617 -106.4296875 253.359375 C-107.30971436 253.90609863 -108.18974121 254.45282227 -109.09643555 255.01611328 C-110.79745604 256.07233914 -112.50195408 257.12298905 -114.21020508 258.16748047 C-114.96970459 258.64072754 -115.7292041 259.11397461 -116.51171875 259.6015625 C-117.18678467 260.01744629 -117.86185059 260.43333008 -118.55737305 260.86181641 C-119.27147339 261.42521729 -119.27147339 261.42521729 -120 262 C-120 262.66 -120 263.32 -120 264 C-120.58523438 264.1227832 -121.17046875 264.24556641 -121.7734375 264.37207031 C-124.02756168 265.00777288 -125.6369761 265.82339433 -127.625 267.046875 C-128.32101318 267.47282959 -129.01702637 267.89878418 -129.73413086 268.33764648 C-130.48186768 268.80372314 -131.22960449 269.2697998 -132 269.75 C-132.78963135 270.23734619 -133.5792627 270.72469238 -134.39282227 271.22680664 C-141.13988355 275.41365534 -147.80002143 279.73128044 -154.44506836 284.07763672 C-162.57583111 289.39399571 -170.78796496 294.57686496 -179.01123047 299.74853516 C-185.31930694 303.71799256 -191.59560465 307.73466256 -197.84790039 311.79125977 C-205.56540064 316.79822334 -213.31798504 321.74483743 -221.10327148 326.64575195 C-225.94196015 329.69351357 -230.76033844 332.7700681 -235.5625 335.875 C-251.29405738 346 -251.29405738 346 -254 346 C-254 346.66 -254 347.32 -254 348 C-251.32624701 349.10095711 -248.72130044 350.07962845 -245.9375 350.875 C-243 352 -243 352 -241.23828125 353.80078125 C-238.51713002 356.47444293 -235.49246931 358.34987725 -232.25 360.3125 C-230.81358679 361.19626475 -229.37740379 362.08040374 -227.94140625 362.96484375 C-227.15523926 363.44679199 -226.36907227 363.92874023 -225.55908203 364.42529297 C-220.75261191 367.3829091 -215.97191608 370.38189118 -211.1875 373.375 C-209.64787598 374.33696289 -209.64787598 374.33696289 -208.07714844 375.31835938 C-200.92502289 379.78871978 -193.7883198 384.28287944 -186.66088867 388.79248047 C-181.78360073 391.87731431 -176.89647718 394.94572552 -172 398 C-163.78740937 403.12374347 -155.60447525 408.29399778 -147.42333984 413.46777344 C-142.6551165 416.48262027 -137.88481307 419.49417484 -133.11474609 422.50610352 C-129.21734949 424.96721808 -125.32067684 427.42946025 -121.42578125 429.89453125 C-109.67080212 437.33155888 -97.88030779 444.71089637 -86.08056641 452.07666016 C-80.06574923 455.83198824 -74.05329216 459.59109414 -68.04077148 463.35009766 C-62.81795475 466.61505566 -57.59366066 469.87761651 -52.3671875 473.13671875 C-50.73716797 474.15378906 -50.73716797 474.15378906 -49.07421875 475.19140625 C-46.99655843 476.48772423 -44.91845848 477.78333796 -42.83984375 479.078125 C-41.90011719 479.66464844 -40.96039062 480.25117187 -39.9921875 480.85546875 C-39.11916992 481.39993652 -38.24615234 481.9444043 -37.34667969 482.50537109 C-35.36358689 483.76842707 -33.43268835 485.0769502 -31.5078125 486.42578125 C-29.07001392 488.26582905 -29.07001392 488.26582905 -26 488 C-25.04794932 492.79492606 -24.86109793 497.44433826 -24.87974548 502.31430054 C-24.87846385 503.54705607 -24.87846385 503.54705607 -24.87715632 504.80471575 C-24.87551326 507.55000868 -24.88100363 510.29524008 -24.88647461 513.04052734 C-24.88675676 515.01183063 -24.8865982 516.98313403 -24.8860321 518.95443726 C-24.88574522 524.30102809 -24.8916244 529.64759649 -24.89860606 534.99418211 C-24.90485769 540.58357346 -24.90544483 546.17296532 -24.90663147 551.76235962 C-24.90973944 562.34445579 -24.91794565 572.92654163 -24.92798096 583.50863326 C-24.93915865 595.55690937 -24.94465673 607.60518598 -24.94967639 619.65346599 C-24.96012869 644.43564972 -24.97771782 669.21782428 -25 694 C-28.01031744 694.93423645 -28.86650268 695.04449911 -32 694 C-33 693 -34 692 -35 691 C-35.66 691 -36.32 691 -37 691 C-37.53625 690.44183594 -38.0725 689.88367188 -38.625 689.30859375 C-41.75735313 686.26382286 -45.25157006 684.27320569 -49 682.0625 C-55.64142988 678.07372621 -62.20146099 673.98695783 -68.6875 669.75 C-69.91327759 668.94937134 -69.91327759 668.94937134 -71.16381836 668.13256836 C-72.87178009 667.01528565 -74.5792063 665.89718394 -76.28613281 664.77832031 C-80.2061935 662.20961556 -84.13083664 659.64795366 -88.0559082 657.08691406 C-89.99511572 655.82150833 -91.933795 654.55529255 -93.87182617 653.28808594 C-100.21754284 649.14361967 -106.5991842 645.05875602 -113 641 C-114.83346035 639.83353296 -116.66680854 638.66688958 -118.5 637.5 C-119.40105469 636.92765625 -120.30210937 636.3553125 -121.23046875 635.765625 C-123.13275177 634.55288603 -125.03098697 633.33378145 -126.92578125 632.109375 C-133.09659263 628.13467105 -139.12501735 624.62866984 -146 622 C-146 621.34 -146 620.68 -146 620 C-147.52770475 618.72700487 -147.52770475 618.72700487 -149.56640625 617.48828125 C-150.35047852 616.98530518 -151.13455078 616.4823291 -151.94238281 615.96411133 C-152.80702148 615.41907959 -153.67166016 614.87404785 -154.5625 614.3125 C-156.4026466 613.13589018 -158.24247799 611.95878726 -160.08203125 610.78125 C-161.53536865 609.85505859 -161.53536865 609.85505859 -163.01806641 608.91015625 C-166.9716759 606.37756736 -170.89807713 603.80449918 -174.82446289 601.22998047 C-182.55673763 596.16202705 -190.30475706 591.11889437 -198.125 586.1875 C-198.75760742 585.7850708 -199.39021484 585.3826416 -200.04199219 584.96801758 C-202.54122499 583.40445307 -204.91643865 582.03154867 -207.6796875 580.98828125 C-210 580 -210 580 -211.84790039 578.14135742 C-214.02553597 575.97459149 -216.17785203 574.41500141 -218.75390625 572.75 C-219.68098389 572.14784668 -220.60806152 571.54569336 -221.56323242 570.92529297 C-222.55299072 570.28994629 -223.54274902 569.65459961 -224.5625 569 C-225.59028564 568.33500488 -226.61807129 567.67000977 -227.67700195 566.98486328 C-234.74386149 562.42218111 -241.84592745 557.91620181 -248.96899414 553.44189453 C-259.06247826 547.09410226 -269.07880547 540.61412969 -279 534 C-279.39830685 532.11108685 -279.39830685 532.11108685 -279.43138123 529.7631073 C-279.45097082 528.87238966 -279.47056042 527.98167202 -279.49074364 527.06396294 C-279.49694033 526.0827453 -279.50313702 525.10152767 -279.50952148 524.09057617 C-279.52734995 523.05798738 -279.54517841 522.0253986 -279.56354713 520.96151924 C-279.61862268 517.50953949 -279.6514926 514.05773332 -279.68359375 510.60546875 C-279.71634157 508.16894946 -279.74992059 505.73244122 -279.7842865 503.29594421 C-280.12888177 476.89361407 -280.11665141 450.48848679 -280.06866455 424.08447266 C-280.05815623 417.65462597 -280.05380694 411.2247748 -280.04882812 404.79492188 C-280.03878908 392.85762713 -280.02318308 380.92034891 -280.00279331 368.98306751 C-280.00045363 367.3220464 -280 365.66102277 -280 364 C-279.67 363.34 -279.34 362.68 -279 362 C-279.54825439 362.35715088 -280.09650879 362.71430176 -280.66137695 363.08227539 C-283.21136784 364.7429399 -285.76193202 366.40272198 -288.3125 368.0625 C-289.17423828 368.62388672 -290.03597656 369.18527344 -290.92382812 369.76367188 C-296.32036232 373.27442832 -301.73689673 376.75157724 -307.17163086 380.20288086 C-312.16303713 383.37437344 -317.14371358 386.56264485 -322.125 389.75 C-323.21159912 390.44520752 -324.29819824 391.14041504 -325.41772461 391.85668945 C-332.46677263 396.36980899 -339.50540755 400.89843664 -346.52197266 405.46191406 C-347.44115479 406.05891113 -347.44115479 406.05891113 -348.37890625 406.66796875 C-348.9630127 407.04872559 -349.54711914 407.42948242 -350.14892578 407.82177734 C-351.49905111 408.68114227 -352.86428136 409.51690928 -354.23779297 410.33837891 C-355.34018311 411.00039307 -355.34018311 411.00039307 -356.46484375 411.67578125 C-357.14023193 412.07321533 -357.81562012 412.47064941 -358.51147461 412.88012695 C-359.24829468 413.43446411 -359.24829468 413.43446411 -360 414 C-360 414.66 -360 415.32 -360 416 C-360.7326709 416.10940918 -361.4653418 416.21881836 -362.22021484 416.33154297 C-365.16238747 417.03904944 -366.97089367 418.02359645 -369.4765625 419.6953125 C-370.72324707 420.51745239 -370.72324707 420.51745239 -371.99511719 421.35620117 C-372.86297852 421.93990479 -373.73083984 422.5236084 -374.625 423.125 C-376.41367912 424.31177594 -378.20273912 425.49797803 -379.9921875 426.68359375 C-380.85166992 427.25577637 -381.71115234 427.82795898 -382.59667969 428.41748047 C-386.439966 430.94817753 -390.3612569 433.34616024 -394.296875 435.73046875 C-394.85890625 436.14941406 -395.4209375 436.56835938 -396 437 C-396 437.66 -396 438.32 -396 439 C-397.0974353 439.16495972 -397.0974353 439.16495972 -398.21704102 439.33325195 C-401.15871619 440.03802561 -403.00325179 441.02355393 -405.52734375 442.66796875 C-406.82285156 443.5029187 -406.82285156 443.5029187 -408.14453125 444.35473633 C-409.06621094 444.95954834 -409.98789062 445.56436035 -410.9375 446.1875 C-412.91521751 447.46637331 -414.89308648 448.74501241 -416.87109375 450.0234375 C-417.88413574 450.68182617 -418.89717773 451.34021484 -419.94091797 452.01855469 C-424.77350713 455.14874572 -429.63796445 458.22833819 -434.5 461.3125 C-437.18087388 463.01885504 -439.86096486 464.72643459 -442.54101562 466.43408203 C-444.12246891 467.4411751 -445.70445683 468.44742935 -447.28710938 469.45263672 C-449.27623929 470.71608909 -451.26340305 471.9825701 -453.25 473.25 C-454.32765625 473.93578125 -455.4053125 474.6215625 -456.515625 475.328125 C-459.0381831 476.91027836 -459.0381831 476.91027836 -461 479 C-462.17131303 479.67474641 -463.36250387 480.31519281 -464.5625 480.9375 C-471.63563201 484.78830046 -478.29292043 489.3164417 -485.03027344 493.71777344 C-488.34540701 495.87581527 -491.68866766 497.98869811 -495.03515625 500.09765625 C-497.47766955 501.66485517 -499.89548905 503.25940068 -502.30859375 504.87109375 C-503.07171875 505.37640625 -503.83484375 505.88171875 -504.62109375 506.40234375 C-506.14037726 507.40922135 -507.65490428 508.42332114 -509.1640625 509.4453125 C-510.21013672 510.13560547 -510.21013672 510.13560547 -511.27734375 510.83984375 C-511.89859131 511.25613037 -512.51983887 511.67241699 -513.15991211 512.10131836 C-515 513 -515 513 -519 513 C-520.15665934 510.68668132 -520.13922895 509.33714274 -520.16494751 506.76104736 C-520.17618464 505.86374625 -520.18742176 504.96644514 -520.1989994 504.04195309 C-520.20632277 503.04745427 -520.21364613 502.05295546 -520.22119141 501.02832031 C-520.23266897 499.97356034 -520.24414654 498.91880037 -520.25597191 497.83207798 C-520.29318664 494.24745768 -520.3226669 490.6628215 -520.3515625 487.078125 C-520.37528517 484.48304637 -520.39913307 481.88796888 -520.4230957 479.29289246 C-520.4942105 471.36744409 -520.55226204 463.44191586 -520.60865879 455.51635122 C-520.62492732 453.26007928 -520.64182062 451.00381288 -520.65892792 448.74754715 C-521.09714947 390.79951272 -520.9651171 332.85629018 -520.65892792 274.90782166 C-520.63607808 270.58027983 -520.61395667 266.2527353 -520.59253693 261.92518616 C-520.53098876 249.4946504 -520.46383908 237.06417119 -520.3866272 224.63372231 C-520.36294233 220.81114818 -520.34126916 216.98857097 -520.32131958 213.16597557 C-520.2980081 208.74506082 -520.26986976 204.32420402 -520.23776317 199.90334463 C-520.22681974 198.29159072 -520.2175491 196.67982448 -520.21004987 195.06805086 C-520.19958965 192.88473824 -520.18309022 190.70155556 -520.16494751 188.51829529 C-520.15719614 187.29954932 -520.14944477 186.08080336 -520.14145851 184.82512569 C-520 182 -520 182 -519 180 C-515.17590093 180.5689266 -512.59726246 181.63271855 -509.3671875 183.73828125 C-508.04980591 184.587854 -508.04980591 184.587854 -506.70581055 185.45458984 C-505.77164307 186.0677002 -504.83747559 186.68081055 -503.875 187.3125 C-501.87915249 188.60324542 -499.88305471 189.89360392 -497.88671875 191.18359375 C-496.39277588 192.15401611 -496.39277588 192.15401611 -494.86865234 193.14404297 C-490.8304853 195.75665113 -486.76070973 198.3175164 -482.6875 200.875 C-477.24846421 204.29585487 -471.83097468 207.74816418 -466.43359375 211.234375 C-465.29407003 211.96897999 -464.15450297 212.70351776 -463.01489258 213.43798828 C-460.79420568 214.86925575 -458.57731815 216.30589522 -456.36206055 217.74560547 C-455.34797119 218.39932129 -454.33388184 219.05303711 -453.2890625 219.7265625 C-451.93868896 220.60175537 -451.93868896 220.60175537 -450.56103516 221.49462891 C-448.09575157 222.94371743 -445.68082023 224.01709292 -443 225 C-443 225.66 -443 226.32 -443 227 C-442.27055176 227.27150879 -441.54110352 227.54301758 -440.78955078 227.82275391 C-438.09680228 228.95914751 -435.81947498 230.25396465 -433.3671875 231.8359375 C-432.48885254 232.39917725 -431.61051758 232.96241699 -430.70556641 233.54272461 C-429.30443604 234.44970093 -429.30443604 234.44970093 -427.875 235.375 C-425.88039094 236.65523246 -423.88559625 237.93517575 -421.890625 239.21484375 C-420.39692383 240.17559814 -420.39692383 240.17559814 -418.87304688 241.15576172 C-414.80236736 243.76877268 -410.71599859 246.35645341 -406.625 248.9375 C-405.86687012 249.41622559 -405.10874023 249.89495117 -404.32763672 250.38818359 C-397.89686456 254.44431133 -391.4490857 258.47307505 -385 262.5 C-370.5514417 271.52309336 -356.150874 280.61525289 -341.8125 289.8125 C-330.62340356 296.98683598 -319.36880285 304.05108721 -308.08496094 311.07519531 C-304.78422052 313.13463164 -301.4892082 315.20308317 -298.1953125 317.2734375 C-296.53060913 318.31842407 -296.53060913 318.31842407 -294.83227539 319.38452148 C-292.68719608 320.73134236 -290.54311763 322.0797589 -288.40014648 323.42993164 C-287.44438721 324.02926514 -286.48862793 324.62859863 -285.50390625 325.24609375 C-284.65642822 325.77904053 -283.8089502 326.3119873 -282.93579102 326.86108398 C-281.23068093 328.08451523 -281.23068093 328.08451523 -280 328 C-280.00138269 327.06327721 -280.00138269 327.06327721 -280.00279331 326.10763073 C-280.02506436 310.77637238 -280.04151523 295.44511913 -280.05181217 280.11384869 C-280.05692649 272.69918416 -280.06387404 265.28453055 -280.07543945 257.86987305 C-280.08553749 251.39276251 -280.09188858 244.9156599 -280.09408849 238.43854171 C-280.0953705 235.0221504 -280.09829079 231.60578172 -280.10573006 228.18939781 C-280.12022685 220.67952897 -280.10206598 213.171266 -280.02949905 205.66170883 C-280.00936541 203.16252563 -279.99992955 200.66323906 -279.99979782 198.16397476 C-279.99498759 194.43226644 -279.94858403 190.70316836 -279.89233398 186.97192383 C-279.89851525 185.84851184 -279.90469652 184.72509985 -279.9110651 183.56764507 C-279.73759561 176.07431677 -279.73759561 176.07431677 -277.65837288 173.04590416 C-274.43232674 170.01562822 -270.90043641 168.30241522 -266.79541016 166.72705078 C-264.24516112 165.69432823 -262.08384072 164.22915016 -259.8125 162.6875 C-253.22105948 158.49908831 -246.61598764 154.33220419 -240.01171875 150.1640625 C-236.80474852 148.1399759 -233.59895463 146.11405356 -230.39453125 144.0859375 C-221.6766101 138.57021351 -212.94028484 133.08524731 -204.1875 127.625 C-193.66355923 121.05727055 -183.18766254 114.41680794 -172.73095703 107.74267578 C-134.69003597 83.46803833 -134.69003597 83.46803833 -122.1875 75.8125 C-117.29571735 72.81589855 -112.45858757 69.74179101 -107.64013672 66.62939453 C-100.28054753 61.88004373 -92.86518588 57.21908041 -85.45556641 52.54833984 C-80.68947433 49.54311456 -75.92591196 46.53387599 -71.16357422 43.52270508 C-66.99822798 40.8897938 -62.82844517 38.2642622 -58.65234375 35.6484375 C-57.34330078 34.82666016 -57.34330078 34.82666016 -56.0078125 33.98828125 C-54.32817499 32.93404069 -52.64723817 31.88186663 -50.96484375 30.83203125 C-50.21203125 30.35894531 -49.45921875 29.88585937 -48.68359375 29.3984375 C-48.01900146 28.98255371 -47.35440918 28.56666992 -46.66967773 28.13818359 C-44.84863084 26.97262103 -44.84863084 26.97262103 -43 25 C-41.67269912 24.32140248 -40.33791491 23.6574237 -39 23 C-36.32255512 21.39565803 -33.66815697 19.7578722 -31.0168457 18.11083984 C-28.47825688 16.53392988 -25.93846915 14.96333749 -23.37109375 13.43359375 C-21.54840018 12.34128186 -19.76805443 11.17870295 -18 10 C-18 9.34 -18 8.68 -18 8 C-17.27039063 7.896875 -16.54078125 7.79375 -15.7890625 7.6875 C-12.73513679 6.93471159 -10.92139381 5.8201028 -8.375 4 C-2.74038462 0 -2.74038462 0 0 0 Z " fill="#FCFCFD" transform="translate(770,160)"/>
<path d="M0 0 C0.66 0.33 1.32 0.66 2 1 C1.67 1.33 1.34 1.66 1 2 C0.89099342 4.01194547 0.853092 6.02775327 0.84178162 8.0426178 C0.82709839 10.01359184 0.82709839 10.01359184 0.81211853 12.02438354 C0.80621355 13.4942013 0.80040316 14.96401943 0.79467773 16.43383789 C0.78510473 17.97091438 0.77509501 19.5079882 0.76467896 21.0450592 C0.73756111 25.23079992 0.71658893 29.41655199 0.69667697 33.60233235 C0.67485969 37.97192424 0.64745024 42.34148085 0.62062073 46.71104431 C0.57063607 54.9912449 0.52571874 63.271465 0.48259836 71.55170387 C0.43327522 80.97599664 0.37833889 90.40025402 0.32291877 99.8245126 C0.20901014 119.21630891 0.10219054 138.60813858 0 158 C-0.66 158 -1.32 158 -2 158 C-2 157.34 -2 156.68 -2 156 C-2.99 155.67 -3.98 155.34 -5 155 C-4.01 154.67 -3.02 154.34 -2 154 C-2.00138269 153.06327721 -2.00138269 153.06327721 -2.00279331 152.10763073 C-2.02506436 136.77637238 -2.04151523 121.44511913 -2.05181217 106.11384869 C-2.05692649 98.69918416 -2.06387404 91.28453055 -2.07543945 83.86987305 C-2.08553749 77.39276251 -2.09188858 70.9156599 -2.09408849 64.43854171 C-2.0953705 61.0221504 -2.09829079 57.60578172 -2.10573006 54.18939781 C-2.13245941 40.34261747 -2.03851733 26.51457634 -1.55639648 12.67504883 C-1.51754113 11.51183703 -1.47868578 10.34862524 -1.43865299 9.1501646 C-1.3971786 8.09154122 -1.35570421 7.03291784 -1.31297302 5.94221497 C-1.27693686 5.0085098 -1.24090071 4.07480463 -1.20377254 3.11280537 C-1 1 -1 1 0 0 Z " fill="#E0E1E1" transform="translate(492,334)"/>
<path d="M0 0 C2.45063118 1.19542984 3.72473173 2.29971531 5.5625 4.25 C4.08132199 3.96872579 2.60256751 3.67466268 1.125 3.375 C0.30128906 3.21257813 -0.52242187 3.05015625 -1.37109375 2.8828125 C-2.05300781 2.67398438 -2.73492188 2.46515625 -3.4375 2.25 C-3.7675 1.59 -4.0975 0.93 -4.4375 0.25 C-2.4375 -0.75 -2.4375 -0.75 0 0 Z " fill="#DFE0E0" transform="translate(628.4375,780.75)"/>
<path d="M0 0 C0.33 0 0.66 0 1 0 C1 2.31 1 4.62 1 7 C0.67 7 0.34 7 0 7 C0 4.69 0 2.38 0 0 Z " fill="#F2F2F3" transform="translate(248,537)"/>
<path d="M0 0 C0.33 0 0.66 0 1 0 C1 1.98 1 3.96 1 6 C0.67 6 0.34 6 0 6 C0 4.02 0 2.04 0 0 Z " fill="#F3F3F5" transform="translate(248,522)"/>
<path d="M0 0 C1.32 0.33 2.64 0.66 4 1 C3.01 1.495 3.01 1.495 2 2 C1.34 1.34 0.68 0.68 0 0 Z " fill="#F2F4F2" transform="translate(612,774)"/>
<path d="M0 0 C0.66 0.33 1.32 0.66 2 1 C1.01 1 0.02 1 -1 1 C-0.67 0.67 -0.34 0.34 0 0 Z " fill="#F0F1F1" transform="translate(697,828)"/>
<path d="M0 0 C1.485 0.99 1.485 0.99 3 2 C2.01 2 1.02 2 0 2 C0 1.34 0 0.68 0 0 Z " fill="#F0F2F1" transform="translate(682,818)"/>
<path d="M0 0 C0.66 0.66 1.32 1.32 2 2 C1.01 2.495 1.01 2.495 0 3 C0 2.01 0 1.02 0 0 Z " fill="#F3F4F4" transform="translate(608,770)"/>
<path d="M0 0 C0.66 0.66 1.32 1.32 2 2 C1.01 1.67 0.02 1.34 -1 1 C-0.67 0.67 -0.34 0.34 0 0 Z " fill="#FAFAFA" transform="translate(564,477)"/>
<path d="M0 0 C0.99 0.33 1.98 0.66 3 1 C2.01 1.33 1.02 1.66 0 2 C0 1.34 0 0.68 0 0 Z " fill="#F0F1F0" transform="translate(740,366)"/>
<path d="" fill="#F2F3F3" transform="translate(0,0)"/>
<path d="" fill="#F3F4F5" transform="translate(0,0)"/>
<path d="M0 0 C2 1 2 1 2 1 Z " fill="#EDECEC" transform="translate(722,844)"/>
<path d="" fill="#EDEEED" transform="translate(0,0)"/>
<path d="M0 0 C2 1 2 1 2 1 Z " fill="#F3F2F1" transform="translate(652,799)"/>
<path d="M0 0 C2 1 2 1 2 1 Z " fill="#F0F2F1" transform="translate(621,780)"/>
<path d="M0 0 C2 1 2 1 2 1 Z " fill="#F3F6F4" transform="translate(596,763)"/>
<path d="M0 0 C2 1 2 1 2 1 Z " fill="#F2F3F2" transform="translate(557,738)"/>
<path d="M0 0 C2 1 2 1 2 1 Z " fill="#F4F5F5" transform="translate(548,732)"/>
<path d="" fill="#F2F3F5" transform="translate(0,0)"/>
<path d="M0 0 C2 1 2 1 2 1 Z " fill="#F9FAF9" transform="translate(460,542)"/>
<path d="" fill="#F0F2F4" transform="translate(0,0)"/>
<path d="M0 0 C2 1 2 1 2 1 Z " fill="#F1F0F0" transform="translate(571,282)"/>
<path d="M0 0 C2 1 2 1 2 1 Z " fill="#F1F1F1" transform="translate(636,241)"/>
<path d="M0 0 C2 1 2 1 2 1 Z " fill="#EFEEEE" transform="translate(688,208)"/>
<path d="M0 0 C2 1 2 1 2 1 Z " fill="#DBDADC" transform="translate(761,162)"/>
<path d="" fill="#5C5C5C" transform="translate(0,0)"/>
<path d="" fill="#D1D1D2" transform="translate(0,0)"/>
<path d="" fill="#DFDDDD" transform="translate(0,0)"/>
<path d="" fill="#E6E7E7" transform="translate(0,0)"/>
<path d="" fill="#E9EBE8" transform="translate(0,0)"/>
<path d="" fill="#EFF1F1" transform="translate(0,0)"/>
<path d="" fill="#E9EBEA" transform="translate(0,0)"/>
<path d="" fill="#ECECED" transform="translate(0,0)"/>
<path d="" fill="#EEEEEE" transform="translate(0,0)"/>
<path d="" fill="#EEEFEF" transform="translate(0,0)"/>
<path d="" fill="#EEEDEF" transform="translate(0,0)"/>
<path d="" fill="#EDEEEA" transform="translate(0,0)"/>
<path d="" fill="#F1F2F1" transform="translate(0,0)"/>
<path d="" fill="#EEF0F1" transform="translate(0,0)"/>
<path d="" fill="#F0F3F1" transform="translate(0,0)"/>
<path d="" fill="#F0F1F2" transform="translate(0,0)"/>
<path d="" fill="#EEEFF0" transform="translate(0,0)"/>
<path d="" fill="#F0EFF2" transform="translate(0,0)"/>
<path d="" fill="#F3F1F2" transform="translate(0,0)"/>
<path d="" fill="#F1F2F2" transform="translate(0,0)"/>
<path d="" fill="#F4F2F2" transform="translate(0,0)"/>
<path d="" fill="#F3F3F2" transform="translate(0,0)"/>
<path d="" fill="#F2F3F3" transform="translate(0,0)"/>
<path d="" fill="#F7F6F5" transform="translate(0,0)"/>
<path d="" fill="#F1F2F2" transform="translate(0,0)"/>
<path d="" fill="#F3F2F3" transform="translate(0,0)"/>
<path d="" fill="#F6F6F4" transform="translate(0,0)"/>
<path d="" fill="#F3F2F0" transform="translate(0,0)"/>
<path d="" fill="#F0F1F1" transform="translate(0,0)"/>
<path d="" fill="#F4F3F5" transform="translate(0,0)"/>
<path d="" fill="#F1F1F0" transform="translate(0,0)"/>
<path d="" fill="#F6F6F7" transform="translate(0,0)"/>
<path d="" fill="#F1F2F4" transform="translate(0,0)"/>
<path d="" fill="#F4F4F4" transform="translate(0,0)"/>
<path d="" fill="#F4F5F5" transform="translate(0,0)"/>
<path d="" fill="#F0F1F1" transform="translate(0,0)"/>
<path d="" fill="#F2F4F5" transform="translate(0,0)"/>
<path d="" fill="#F3F4F3" transform="translate(0,0)"/>
<path d="" fill="#F3F2F5" transform="translate(0,0)"/>
<path d="" fill="#F3F1F4" transform="translate(0,0)"/>
<path d="" fill="#F2F2F4" transform="translate(0,0)"/>
<path d="" fill="#F3F3F4" transform="translate(0,0)"/>
<path d="" fill="#F4F2F6" transform="translate(0,0)"/>
<path d="" fill="#F2F4F3" transform="translate(0,0)"/>
<path d="" fill="#F2F2F3" transform="translate(0,0)"/>
<path d="" fill="#F2F1F3" transform="translate(0,0)"/>
<path d="" fill="#F6F5F6" transform="translate(0,0)"/>
<path d="" fill="#F6F4F4" transform="translate(0,0)"/>
<path d="" fill="#F1F3F1" transform="translate(0,0)"/>
<path d="" fill="#F4F5F4" transform="translate(0,0)"/>
<path d="" fill="#F3F2F4" transform="translate(0,0)"/>
<path d="" fill="#D7D8D8" transform="translate(0,0)"/>
<path d="" fill="#DADBDB" transform="translate(0,0)"/>
<path d="" fill="#ECECED" transform="translate(0,0)"/>
<path d="" fill="#F2F2F1" transform="translate(0,0)"/>
<path d="" fill="#F0F0F0" transform="translate(0,0)"/>
<path d="" fill="#F2F3F4" transform="translate(0,0)"/>
<path d="" fill="#F2F5F4" transform="translate(0,0)"/>
<path d="" fill="#F0F2F1" transform="translate(0,0)"/>
<path d="" fill="#F4F3F4" transform="translate(0,0)"/>
<path d="" fill="#F0EFF0" transform="translate(0,0)"/>
<path d="" fill="#F1F1F1" transform="translate(0,0)"/>
<path d="" fill="#F2F3F3" transform="translate(0,0)"/>
<path d="" fill="#F1F2F3" transform="translate(0,0)"/>
<path d="" fill="#F1F2F2" transform="translate(0,0)"/>
<path d="" fill="#EFF1F3" transform="translate(0,0)"/>
<path d="" fill="#F2F2F4" transform="translate(0,0)"/>
<path d="" fill="#F4F4F4" transform="translate(0,0)"/>
<path d="" fill="#F1F1F4" transform="translate(0,0)"/>
<path d="" fill="#F2F3F2" transform="translate(0,0)"/>
<path d="" fill="#F4F3F4" transform="translate(0,0)"/>
<path d="" fill="#F4F6F5" transform="translate(0,0)"/>
<path d="" fill="#F2F2F3" transform="translate(0,0)"/>
<path d="" fill="#F5F5F7" transform="translate(0,0)"/>
<path d="" fill="#F3F2F3" transform="translate(0,0)"/>
<path d="" fill="#F8F4F7" transform="translate(0,0)"/>
<path d="" fill="#F3F2F3" transform="translate(0,0)"/>
<path d="" fill="#F4F5F5" transform="translate(0,0)"/>
<path d="" fill="#F6F6F6" transform="translate(0,0)"/>
<path d="" fill="#F8F8F7" transform="translate(0,0)"/>
<path d="" fill="#F7F7F6" transform="translate(0,0)"/>
<path d="" fill="#F1F3F4" transform="translate(0,0)"/>
<path d="" fill="#F9F8F9" transform="translate(0,0)"/>
<path d="" fill="#F5F6F6" transform="translate(0,0)"/>
<path d="" fill="#F8F7F6" transform="translate(0,0)"/>
<path d="" fill="#F5F2F4" transform="translate(0,0)"/>
<path d="" fill="#F5F7F6" transform="translate(0,0)"/>
<path d="" fill="#F1F2F2" transform="translate(0,0)"/>
<path d="" fill="#F0F1F3" transform="translate(0,0)"/>
<path d="" fill="#F4F1F5" transform="translate(0,0)"/>
<path d="" fill="#F1F2F3" transform="translate(0,0)"/>
<path d="" fill="#F6F8F7" transform="translate(0,0)"/>
<path d="" fill="#F7F9FA" transform="translate(0,0)"/>
<path d="" fill="#F8F9F8" transform="translate(0,0)"/>
<path d="" fill="#F7F9FA" transform="translate(0,0)"/>
<path d="" fill="#F2F2F5" transform="translate(0,0)"/>
<path d="" fill="#F8F8F9" transform="translate(0,0)"/>
<path d="" fill="#F9F9F9" transform="translate(0,0)"/>
<path d="" fill="#F3F4F5" transform="translate(0,0)"/>
<path d="" fill="#FAFAF9" transform="translate(0,0)"/>
<path d="" fill="#F8F9F9" transform="translate(0,0)"/>
<path d="" fill="#F9F9F8" transform="translate(0,0)"/>
<path d="" fill="#F6F9FA" transform="translate(0,0)"/>
<path d="" fill="#F8F9F9" transform="translate(0,0)"/>
<path d="" fill="#F3F4F4" transform="translate(0,0)"/>
<path d="" fill="#F3F2F4" transform="translate(0,0)"/>
<path d="" fill="#FCFAFB" transform="translate(0,0)"/>
<path d="" fill="#F5F4F9" transform="translate(0,0)"/>
<path d="" fill="#F3F3F7" transform="translate(0,0)"/>
<path d="" fill="#FBFBF9" transform="translate(0,0)"/>
<path d="" fill="#FCFCFC" transform="translate(0,0)"/>
<path d="" fill="#FCFBFC" transform="translate(0,0)"/>
<path d="" fill="#F9FAFB" transform="translate(0,0)"/>
<path d="" fill="#F3F2F5" transform="translate(0,0)"/>
<path d="" fill="#FBFBFC" transform="translate(0,0)"/>
<path d="" fill="#F2F2F4" transform="translate(0,0)"/>
<path d="" fill="#F2F3F2" transform="translate(0,0)"/>
<path d="" fill="#F2F2F6" transform="translate(0,0)"/>
<path d="" fill="#F2F2F2" transform="translate(0,0)"/>
<path d="" fill="#FAFBFA" transform="translate(0,0)"/>
<path d="" fill="#F8F9F8" transform="translate(0,0)"/>
<path d="" fill="#F3F4F5" transform="translate(0,0)"/>
<path d="" fill="#FAFAF9" transform="translate(0,0)"/>
<path d="" fill="#FBFBFB" transform="translate(0,0)"/>
<path d="" fill="#F3F3F6" transform="translate(0,0)"/>
<path d="" fill="#F4F4F3" transform="translate(0,0)"/>
<path d="" fill="#F3F3F5" transform="translate(0,0)"/>
<path d="" fill="#F7F8F8" transform="translate(0,0)"/>
<path d="" fill="#F9FAF8" transform="translate(0,0)"/>
<path d="" fill="#FBFBFB" transform="translate(0,0)"/>
<path d="" fill="#F9FAF9" transform="translate(0,0)"/>
<path d="" fill="#F1F3F3" transform="translate(0,0)"/>
<path d="" fill="#F3F3F3" transform="translate(0,0)"/>
<path d="" fill="#F8FAF8" transform="translate(0,0)"/>
<path d="" fill="#F7F8F7" transform="translate(0,0)"/>
<path d="" fill="#F4F3F5" transform="translate(0,0)"/>
<path d="" fill="#F8F7F8" transform="translate(0,0)"/>
<path d="" fill="#FCFBFC" transform="translate(0,0)"/>
<path d="" fill="#F8FBFC" transform="translate(0,0)"/>
<path d="" fill="#F6F7F7" transform="translate(0,0)"/>
<path d="" fill="#FBFAFB" transform="translate(0,0)"/>
<path d="" fill="#F4F4F5" transform="translate(0,0)"/>
<path d="" fill="#F9F8F9" transform="translate(0,0)"/>
<path d="" fill="#F8F8F9" transform="translate(0,0)"/>
<path d="" fill="#F3F1F5" transform="translate(0,0)"/>
<path d="" fill="#F7F8F7" transform="translate(0,0)"/>
<path d="" fill="#F7F9F8" transform="translate(0,0)"/>
<path d="" fill="#F6F6F6" transform="translate(0,0)"/>
<path d="" fill="#F4F4F4" transform="translate(0,0)"/>
<path d="" fill="#F5F5F5" transform="translate(0,0)"/>
<path d="" fill="#F8F8F9" transform="translate(0,0)"/>
<path d="" fill="#F7F6F7" transform="translate(0,0)"/>
<path d="" fill="#F5F6F6" transform="translate(0,0)"/>
<path d="" fill="#F4F5F4" transform="translate(0,0)"/>
<path d="" fill="#F6F5F5" transform="translate(0,0)"/>
<path d="" fill="#F8F9F9" transform="translate(0,0)"/>
<path d="" fill="#F5F5F4" transform="translate(0,0)"/>
<path d="" fill="#F4F4F4" transform="translate(0,0)"/>
<path d="" fill="#F0EFF3" transform="translate(0,0)"/>
<path d="" fill="#F5F4F5" transform="translate(0,0)"/>
<path d="" fill="#F3F3F1" transform="translate(0,0)"/>
<path d="" fill="#F2F1F0" transform="translate(0,0)"/>
<path d="" fill="#F4F4F4" transform="translate(0,0)"/>
<path d="" fill="#F2F4F3" transform="translate(0,0)"/>
<path d="" fill="#F5F6F4" transform="translate(0,0)"/>
<path d="" fill="#F9F9F9" transform="translate(0,0)"/>
<path d="" fill="#F2F3F2" transform="translate(0,0)"/>
<path d="" fill="#F6F4F4" transform="translate(0,0)"/>
<path d="" fill="#F5F3F4" transform="translate(0,0)"/>
<path d="" fill="#F4F6F4" transform="translate(0,0)"/>
<path d="" fill="#F3F2F3" transform="translate(0,0)"/>
<path d="" fill="#F1F2F2" transform="translate(0,0)"/>
<path d="" fill="#F2F3F2" transform="translate(0,0)"/>
<path d="" fill="#F2F6F5" transform="translate(0,0)"/>
<path d="" fill="#EFEFEF" transform="translate(0,0)"/>
<path d="" fill="#F3F2F3" transform="translate(0,0)"/>
<path d="" fill="#EEEFEE" transform="translate(0,0)"/>
<path d="" fill="#F0F0F1" transform="translate(0,0)"/>
<path d="" fill="#F0EEF2" transform="translate(0,0)"/>
<path d="" fill="#F3F4F3" transform="translate(0,0)"/>
<path d="" fill="#EDECEC" transform="translate(0,0)"/>
<path d="" fill="#E3E3E5" transform="translate(0,0)"/>
<path d="" fill="#EAEAEA" transform="translate(0,0)"/>
<path d="" fill="#E1E2E2" transform="translate(0,0)"/>
<path d="" fill="#E8E9EB" transform="translate(0,0)"/>
<path d="" fill="#ECEDEC" transform="translate(0,0)"/>
<path d="" fill="#E5E7E7" transform="translate(0,0)"/>
<path d="" fill="#CECECF" transform="translate(0,0)"/>
<path d="" fill="#EBEDEE" transform="translate(0,0)"/>
<path d="" fill="#EEEEEF" transform="translate(0,0)"/>
<path d="" fill="#F3F2F3" transform="translate(0,0)"/>
<path d="" fill="#F0F1F1" transform="translate(0,0)"/>
<path d="" fill="#F3F2F1" transform="translate(0,0)"/>
<path d="" fill="#F2F0EF" transform="translate(0,0)"/>
<path d="" fill="#EFF0EE" transform="translate(0,0)"/>
<path d="" fill="#F0F0F0" transform="translate(0,0)"/>
<path d="" fill="#F2F3F4" transform="translate(0,0)"/>
<path d="" fill="#F1F2F1" transform="translate(0,0)"/>
<path d="" fill="#F0F1F2" transform="translate(0,0)"/>
<path d="" fill="#F0F1EF" transform="translate(0,0)"/>
<path d="" fill="#EFEFEF" transform="translate(0,0)"/>
<path d="" fill="#F1F1F3" transform="translate(0,0)"/>
<path d="" fill="#EFF1F0" transform="translate(0,0)"/>
<path d="" fill="#EFF1F1" transform="translate(0,0)"/>
<path d="" fill="#F1F1F1" transform="translate(0,0)"/>
<path d="" fill="#F1F2F3" transform="translate(0,0)"/>
<path d="" fill="#F0F1F1" transform="translate(0,0)"/>
<path d="" fill="#F1F0F1" transform="translate(0,0)"/>
<path d="" fill="#EFEEEF" transform="translate(0,0)"/>
<path d="" fill="#F3F3F4" transform="translate(0,0)"/>
<path d="" fill="#F2F1F1" transform="translate(0,0)"/>
<path d="" fill="#EEEFEF" transform="translate(0,0)"/>
<path d="" fill="#F0F2F1" transform="translate(0,0)"/>
<path d="" fill="#F0F1F1" transform="translate(0,0)"/>
<path d="" fill="#F2F1F2" transform="translate(0,0)"/>
<path d="" fill="#F3F3F3" transform="translate(0,0)"/>
<path d="" fill="#F0EFF1" transform="translate(0,0)"/>
<path d="" fill="#F0F1EF" transform="translate(0,0)"/>
<path d="" fill="#F0EEEF" transform="translate(0,0)"/>
<path d="" fill="#F2F2F3" transform="translate(0,0)"/>
<path d="" fill="#F1F1F0" transform="translate(0,0)"/>
<path d="" fill="#EDEDED" transform="translate(0,0)"/>
<path d="" fill="#F1F1F1" transform="translate(0,0)"/>
<path d="" fill="#ECEBEC" transform="translate(0,0)"/>
<path d="" fill="#E9EAEC" transform="translate(0,0)"/>
<path d="" fill="#D5D6D7" transform="translate(0,0)"/>
<path d="" fill="#3F3F40" transform="translate(0,0)"/>
</svg>
