<?xml version="1.0" encoding="UTF-8"?>
<svg version="1.1" xmlns="http://www.w3.org/2000/svg" width="1080" height="1080">
<path d="M0 0 C0.35061727 25.90354137 0.61501781 51.80672651 0.77718258 77.71216393 C0.85448553 89.74104571 0.95984369 101.76845209 1.1315918 113.79638672 C1.28124219 124.28177589 1.37790479 134.76609659 1.41132742 145.25252402 C1.43086259 150.8042001 1.4766571 156.35282003 1.58595085 161.90351486 C1.68808227 167.13302091 1.71911951 172.35822585 1.69661522 177.58863449 C1.70072892 179.50361559 1.73040374 181.41874616 1.78808212 183.33286285 C2.19114936 197.40394893 2.19114936 197.40394893 -1.47330165 201.74555254 C-5.0383317 204.84987834 -8.97441835 207.08795577 -13.21783817 209.13449597 C-15.57054459 210.27708406 -17.77654197 211.6258408 -20 213 C-20.78117188 213.45890625 -21.56234375 213.9178125 -22.3671875 214.390625 C-25.68410951 216.4181797 -28.90097687 218.57871912 -32.125 220.75 C-37.37902393 224.28624684 -42.68223699 227.72136772 -48.0625 231.0625 C-49.07727417 231.69333496 -49.07727417 231.69333496 -50.11254883 232.33691406 C-51.11644653 232.96098145 -51.11644653 232.96098145 -52.140625 233.59765625 C-60.3285063 238.68790989 -68.40792283 243.92599615 -76.421875 249.28515625 C-77.00337814 249.67383881 -77.58488129 250.06252136 -78.18400574 250.46298218 C-81.11462461 252.42263231 -84.04304664 254.38544534 -86.96801758 256.35351562 C-93.55004586 260.77098026 -100.21093429 265.01701782 -106.97924805 269.14428711 C-111.24763031 271.76644613 -115.43791573 274.50059942 -119.625 277.25 C-126.27825021 281.5974421 -132.95965012 285.89391307 -139.6875 290.125 C-147.84375982 295.2553741 -155.9413223 300.47133699 -164.02294922 305.71826172 C-172.04466258 310.91880446 -180.09919905 316.06815869 -188.16796875 321.1953125 C-191.38796083 323.24722469 -194.60111638 325.30965515 -197.8125 327.375 C-198.40305176 327.75470947 -198.99360352 328.13441895 -199.60205078 328.52563477 C-202.5502559 330.42193757 -205.49697375 332.32050074 -208.44140625 334.22265625 C-215.31683137 338.65970955 -222.23346671 343.02269516 -229.18359375 347.34179688 C-233.1308547 349.80406313 -237.02156919 352.32951506 -240.875 354.9375 C-246.73400826 358.89999732 -252.77130917 362.5460512 -258.85888672 366.14428711 C-262.69476257 368.44438789 -266.01461861 370.60174671 -269 374 C-260.50707396 380.20049099 -251.59981369 385.71773991 -242.69726562 391.30273438 C-237.95333138 394.28787475 -233.22712468 397.30083803 -228.5 400.3125 C-227.61731445 400.87461182 -226.73462891 401.43672363 -225.82519531 402.01586914 C-222.28824395 404.2683731 -218.75153852 406.52126311 -215.21484375 408.77416992 C-209.48373048 412.42337061 -203.74614005 416.06201136 -198 419.6875 C-193.0583613 422.80544458 -188.11726683 425.92414846 -183.18359375 429.0546875 C-175.31017916 434.04616573 -167.4112367 438.98263192 -159.4375 443.8125 C-154.06122872 447.07134751 -148.85373254 450.44034956 -143.75390625 454.12109375 C-139.13313561 457.27370464 -134.32291272 460.11838449 -129.53881836 463.01464844 C-124.96898205 465.78482713 -120.46623281 468.61490268 -116.046875 471.62109375 C-112.73802561 473.85014687 -109.35837708 475.96670235 -105.98828125 478.1015625 C-102.23758116 480.4843602 -98.50474526 482.89449025 -94.77050781 485.30297852 C-91.23570334 487.57746938 -87.68792127 489.82996535 -84.12890625 492.06640625 C-83.28972656 492.59403564 -82.45054687 493.12166504 -81.5859375 493.6652832 C-79.94520096 494.69566448 -78.30333338 495.72424769 -76.66015625 496.75073242 C-73.06906337 499.00616016 -69.54559643 501.29425023 -66.12109375 503.796875 C-63.17346868 506.10258922 -63.17346868 506.10258922 -60 507 C-60 507.66 -60 508.32 -60 509 C-59.33742188 509.23074219 -58.67484375 509.46148438 -57.9921875 509.69921875 C-54.12133615 511.38197789 -50.68302799 513.55464859 -47.125 515.8125 C-46.44308594 516.23853516 -45.76117187 516.66457031 -45.05859375 517.10351562 C-43.02444923 518.38405803 -41.00100948 519.66800677 -39 521 C-38.43450847 521.30876263 -37.86901693 521.61752526 -37.28638929 521.93564433 C-35.26933566 523.14694881 -33.64221691 524.30983225 -32 526 C-31.280878 529.18109494 -31.054567 531.35606613 -31.12025452 534.53572083 C-31.11018999 535.39345539 -31.10012546 536.25118996 -31.08975595 537.13491648 C-31.06451695 540.00854522 -31.08913748 542.87956966 -31.11352539 545.75317383 C-31.1056375 547.81301211 -31.09467724 549.87284059 -31.08087158 551.93264771 C-31.05210842 557.52542689 -31.06639689 563.11737061 -31.08831334 568.71015 C-31.10392825 574.55452825 -31.08009214 580.39874101 -31.06040955 586.24308777 C-31.02914699 597.31050783 -31.03345402 608.37761797 -31.05048412 619.44505757 C-31.06814434 632.04475565 -31.04623716 644.64428722 -31.02097714 657.24396098 C-30.96990284 683.16269602 -30.96861249 709.08124295 -31 735 C-35.78153081 735 -37.94570313 733.32554508 -41.6875 730.6875 C-43.03429768 729.76307082 -44.38198815 728.83994128 -45.73046875 727.91796875 C-46.43091309 727.43634277 -47.13135742 726.9547168 -47.85302734 726.45849609 C-51.36104818 724.07540348 -54.93094522 721.79022174 -58.5 719.5 C-63.990871 715.96404635 -69.44942284 712.38533808 -74.875 708.75 C-79.81491954 705.44164858 -84.78913407 702.20206987 -89.81640625 699.02734375 C-94.9823318 695.73763165 -100.10919966 692.38792263 -105.24169922 689.04638672 C-110.05510123 685.91305834 -114.87363206 682.78806196 -119.70019531 679.67504883 C-125.62563734 675.85282368 -131.52236288 671.9953405 -137.375 668.0625 C-143.0198314 664.27128566 -148.74080941 660.61486 -154.5 657 C-162.76656936 651.80965151 -170.90730967 646.45638542 -179 641 C-187.2072484 635.46756154 -195.45906233 630.04350648 -203.86987305 624.82470703 C-214.66150851 618.12067346 -225.29131215 611.16736219 -235.84375 604.09375 C-240.44084792 601.04419 -245.08003279 598.06070156 -249.71606445 595.07080078 C-254.85472399 591.75252708 -259.95022568 588.37471136 -265.03125 584.96875 C-269.48094289 582.01790103 -273.97979473 579.14575378 -278.48046875 576.2734375 C-279.30955797 575.70915385 -279.30955797 575.70915385 -280.15539646 575.13347054 C-282.01375771 573.92137487 -282.01375771 573.92137487 -284.27330685 573.08001518 C-287.18602118 571.6958648 -288.91450952 570.482735 -291 568 C-292.39206098 562.20002077 -292.19714724 556.45579733 -292.11352539 550.52001953 C-292.12085198 548.71618202 -292.1321318 546.91235687 -292.14706421 545.10856628 C-292.17636032 540.21799007 -292.15038114 535.32908626 -292.11447453 530.43861246 C-292.08633397 525.3256093 -292.10902696 520.21283795 -292.12632751 515.099823 C-292.15135481 505.42059908 -292.13066659 495.74203422 -292.09355396 486.06287086 C-292.05352387 475.04232034 -292.06445651 464.02200475 -292.07967007 453.00141358 C-292.10981982 430.33408183 -292.07596988 407.66720693 -292 385 C-294.65992234 386.71319104 -297.31835614 388.42867913 -299.9765625 390.14453125 C-300.71720947 390.62152466 -301.45785645 391.09851807 -302.22094727 391.58996582 C-307.96285623 395.29860762 -313.64377899 399.09004463 -319.25390625 402.9954834 C-323.6706462 406 -323.6706462 406 -327 406 C-327 406.66 -327 407.32 -327 408 C-333.75 412 -333.75 412 -336 412 C-336 412.66 -336 413.32 -336 414 C-336.53367187 414.27972656 -337.06734375 414.55945313 -337.6171875 414.84765625 C-341.70673752 417.04808887 -345.6019207 419.35225994 -349.375 422.0625 C-354.43386784 425.67254651 -359.63457418 429.03690701 -364.875 432.375 C-365.70821777 432.91133057 -366.54143555 433.44766113 -367.39990234 434.00024414 C-368.19348145 434.50289795 -368.98706055 435.00555176 -369.8046875 435.5234375 C-370.87178955 436.202854 -370.87178955 436.202854 -371.96044922 436.89599609 C-373.98078672 437.9895999 -375.75558845 438.55414471 -378 439 C-378 439.66 -378 440.32 -378 441 C-379.46191406 442.10986328 -379.46191406 442.10986328 -381.515625 443.3203125 C-382.26602051 443.76898682 -383.01641602 444.21766113 -383.78955078 444.67993164 C-384.60149902 445.1568042 -385.41344727 445.63367676 -386.25 446.125 C-387.92040517 447.12440859 -389.58967616 448.12571527 -391.2578125 449.12890625 C-392.07540039 449.6202002 -392.89298828 450.11149414 -393.73535156 450.61767578 C-397.55178685 452.94719892 -401.23728227 455.46082465 -404.9375 457.96875 C-408.62010935 460.41129702 -412.36742384 462.73764677 -416.125 465.0625 C-420.49859534 467.77139625 -424.81403858 470.50499394 -429 473.5 C-433.73467533 476.88418069 -438.63858533 479.95596399 -443.58984375 483.00976562 C-456.06414227 490.71296646 -468.29875071 498.79635588 -480.54907227 506.84863281 C-487.41784591 511.36226949 -494.30312532 515.84463915 -501.24584961 520.24414062 C-506.5053944 523.59726944 -511.71898249 527.02101623 -516.9375 530.4375 C-518.02740234 531.14970703 -519.11730469 531.86191406 -520.24023438 532.59570312 C-527.51999537 537.35804232 -534.76981924 542.16276375 -542 547 C-542.66 546.67 -543.32 546.34 -544 546 C-544.12814572 507.1716838 -544.25560846 468.34336542 -544.38218227 429.51504406 C-544.39719872 424.908711 -544.41222069 420.30237795 -544.42724609 415.69604492 C-544.43173202 414.32075421 -544.43173202 414.32075421 -544.43630856 412.91767985 C-544.48445323 398.16154625 -544.53304379 383.40541414 -544.58180541 368.64928257 C-544.63200117 353.45607905 -544.68170322 338.26287397 -544.73096704 323.0696674 C-544.75858017 314.55784657 -544.78641814 306.04602659 -544.81480408 297.5342083 C-544.82301498 295.0629779 -544.83121912 292.59174748 -544.83942038 290.12051705 C-544.84480842 288.50184212 -544.85022392 286.88316728 -544.85566753 285.26449253 C-544.88397453 276.84060818 -544.91031707 268.4167304 -544.92946625 259.99281979 C-544.93605344 257.16585713 -544.94274335 254.33889472 -544.94946289 251.51193237 C-544.95102436 250.83457408 -544.95258582 250.15721579 -544.95419461 249.45933149 C-544.97291151 241.64120685 -545.01137473 233.82381584 -545.08912516 226.00604981 C-545.12613301 222.22686883 -545.15340908 218.44765448 -545.17925167 214.66838276 C-545.20035836 212.24219452 -545.23722345 209.81660193 -545.27484894 207.39062405 C-545.28436725 205.99663312 -545.29303992 204.60263602 -545.30065918 203.20863342 C-545.31497734 202.04107041 -545.3292955 200.8735074 -545.34404755 199.6705637 C-545.23051186 198.78927768 -545.11697617 197.90799166 -545 197 C-543.515 196.01 -543.515 196.01 -542 195 C-541.319375 195.5775 -540.63875 196.155 -539.9375 196.75 C-537.34872238 198.7328935 -534.73958489 200.29348147 -531.90649414 201.88916016 C-528.75990008 203.7225579 -525.76331297 205.7698975 -522.75 207.8125 C-518.36513108 210.76161538 -513.97103363 213.68217791 -509.5 216.5 C-501.55351391 221.51821187 -493.77643168 226.79516842 -485.97265625 232.03125 C-477.377603 237.78486589 -468.69202587 243.39457692 -460 249 C-451.21287531 254.66675161 -442.44319635 260.35006457 -433.7578125 266.171875 C-430.18032856 268.54335161 -426.55432152 270.83394958 -422.92578125 273.1262207 C-420.07311382 274.95317518 -417.25673552 276.82515513 -414.4453125 278.71484375 C-407.09802691 283.6239508 -399.64269668 288.35736464 -392.1796875 293.08789062 C-386.51222732 296.69668798 -380.95400229 300.40556893 -375.47143555 304.28857422 C-372.01369254 306.68300062 -368.46356967 308.91864392 -364.90576172 311.16064453 C-359.58670254 314.52762419 -354.32922085 317.98945824 -349.0625 321.4375 C-347.97259766 322.14970703 -346.88269531 322.86191406 -345.75976562 323.59570312 C-340.40223754 327.10053879 -335.05730877 330.62250428 -329.734375 334.1796875 C-324.22011895 337.86356791 -318.65797425 341.46678102 -313.07226562 345.04101562 C-308.6183333 347.90633717 -304.29722789 350.90471952 -300 354 C-297.06927107 355.84022514 -294.117529 357.49896752 -291 359 C-291.33 358.34 -291.66 357.68 -292 357 C-292.11153098 354.847382 -292.15718021 352.6912667 -292.17408752 350.53582764 C-292.18383595 349.52893525 -292.18383595 349.52893525 -292.19378132 348.50170159 C-292.21423766 346.24170628 -292.22741298 343.98172899 -292.24047852 341.72167969 C-292.25328711 340.10552214 -292.26642252 338.48936715 -292.27986145 336.87321472 C-292.39577695 322.11803394 -292.45239161 307.36217584 -292.49662876 292.6066246 C-292.52988478 281.69657519 -292.58946762 270.78735497 -292.68413979 259.87766147 C-292.74843649 252.20966131 -292.78216025 244.54188734 -292.79337829 236.8736279 C-292.80094434 232.29217892 -292.82217022 227.71173126 -292.87640572 223.13057709 C-292.92684236 218.81938944 -292.93944963 214.50973345 -292.92315483 210.1982975 C-292.92375862 208.61721703 -292.93804073 207.03607281 -292.96710205 205.45525932 C-293.1752426 193.50727603 -293.1752426 193.50727603 -290.25419426 189.76096344 C-288.22553948 188.21183868 -286.30311764 187.08512717 -284 186 C-282.63101563 185.09121094 -282.63101563 185.09121094 -281.234375 184.1640625 C-280.41453125 183.65617188 -279.5946875 183.14828125 -278.75 182.625 C-270.14037315 177.2186783 -261.70357897 171.57569727 -253.44921875 165.640625 C-250.95907453 163.97258581 -248.38923927 162.50239395 -245.77905273 161.03173828 C-242.99586651 159.41766597 -240.35154571 157.61511775 -237.6875 155.8125 C-229.35825956 150.20726728 -220.94989244 144.72417363 -212.53979492 139.24145508 C-211.48123291 138.55075928 -210.4226709 137.86006348 -209.33203125 137.1484375 C-208.28869629 136.4687793 -207.24536133 135.78912109 -206.17041016 135.08886719 C-203.99008476 133.6523306 -201.82433966 132.20483819 -199.66943359 130.73144531 C-198.6067627 130.00795898 -197.5440918 129.28447266 -196.44921875 128.5390625 C-195.49748779 127.88373535 -194.54575684 127.2284082 -193.56518555 126.55322266 C-191.28250825 125.17105906 -189.60488124 124.4376599 -187 124 C-187 123.34 -187 122.68 -187 122 C-185.6015625 120.93774414 -185.6015625 120.93774414 -183.625 119.78515625 C-182.53046509 119.13546875 -182.53046509 119.13546875 -181.41381836 118.47265625 C-180.6172583 118.00730469 -179.82069824 117.54195313 -179 117.0625 C-172.8418669 113.38767129 -166.81436447 109.61047231 -160.9375 105.5 C-155.50273621 101.70465681 -150.01464172 98.0207315 -144.4375 94.4375 C-135.51537884 88.70403021 -126.6976312 82.82228022 -117.890625 76.9140625 C-112.13928302 73.06461932 -106.34740463 69.2859827 -100.5176239 65.55682373 C-96.34892784 62.88324658 -92.21399119 60.16354053 -88.09765625 57.41015625 C-87.45693176 56.98232346 -86.81620728 56.55449066 -86.15606689 56.11369324 C-84.10364912 54.74305309 -82.05179176 53.37157704 -80 52 C-78.62462543 51.08100629 -77.24921846 50.16206108 -75.8737793 49.24316406 C-75.18744919 48.7846405 -74.50111908 48.32611694 -73.79399109 47.85369873 C-70.98744232 45.97896585 -68.18054594 44.10475392 -65.37353516 42.23071289 C-63.95041184 41.28027332 -62.52756298 40.32942266 -61.10498047 39.37817383 C-53.69644386 34.42478196 -46.27487658 29.50861072 -38.73925781 24.74975586 C-33.78761913 21.58679735 -28.90496168 18.31931105 -24.01904297 15.05615234 C-22.23910813 13.86772773 -20.45752261 12.68180775 -18.67578125 11.49609375 C-11.66321327 6.82612835 -11.66321327 6.82612835 -4.796875 1.9453125 C-2 0 -2 0 0 0 Z " fill="#272829" transform="translate(812,166)"/>
<path d="M0 0 C1.32 0.33 2.64 0.66 4 1 C4.33 69.97 4.66 138.94 5 210 C4.67 210 4.34 210 4 210 C3.87625 209.05125 3.7525 208.1025 3.625 207.125 C3.28312823 203.91332809 3.28312823 203.91332809 1 202 C0.79453177 199.33006304 0.71490111 196.76259634 0.7215271 194.09078979 C0.7157347 193.26420337 0.7099423 192.43761694 0.70397437 191.58598244 C0.68689274 188.80060958 0.68409089 186.01540158 0.68115234 183.22998047 C0.67185979 181.23955882 0.66169214 179.24914108 0.65071106 177.25872803 C0.6233211 171.84167219 0.60823509 166.42464248 0.59528303 161.00753546 C0.57969171 155.35135734 0.55288884 149.69523291 0.5272522 144.03909302 C0.48039337 133.32230804 0.44368372 122.60551304 0.41057932 111.88867772 C0.37240802 99.69052317 0.32298486 87.49242244 0.27259517 75.29431319 C0.16916969 50.19624864 0.07994392 25.09814955 0 0 Z " fill="#1A1B1C" transform="translate(776,691)"/>
<path d="M0 0 C3 1 3 1 5 3 C3.9375 4.9375 3.9375 4.9375 2 7 C0.96875 7.12375 -0.0625 7.2475 -1.125 7.375 C-5.70283182 8.11335997 -7.94620105 9.85197012 -11.64453125 12.5 C-15.19422122 14.76049909 -18.95988852 15.91117563 -23 17 C-19.05709585 12.68526992 -14.81176436 9.80301018 -9.8125 6.8125 C-8.38006071 5.94640358 -6.94900527 5.07801309 -5.51953125 4.20703125 C-4.89151611 3.8303833 -4.26350098 3.45373535 -3.61645508 3.06567383 C-1.83460334 1.96870652 -1.83460334 1.96870652 0 0 Z " fill="#2F2F2F" transform="translate(704,236)"/>
<path d="M0 0 C-1.43160268 1.00842453 -2.87051453 2.00647891 -4.3125 3 C-5.11300781 3.556875 -5.91351563 4.11375 -6.73828125 4.6875 C-9 6 -9 6 -12 6 C-12 6.66 -12 7.32 -12 8 C-14.26298453 9.6366755 -16.51267112 11.14565511 -18.875 12.625 C-19.85146484 13.25535156 -19.85146484 13.25535156 -20.84765625 13.8984375 C-25.73161019 17 -25.73161019 17 -28 17 C-28 15.68 -28 14.36 -28 13 C-26.4840625 12.1646875 -26.4840625 12.1646875 -24.9375 11.3125 C-22.34415673 9.83580756 -19.90715119 8.26306085 -17.5 6.5 C-5.88038109 -1.96012703 -5.88038109 -1.96012703 0 0 Z " fill="#2F2F2F" transform="translate(446,599)"/>
<path d="M0 0 C7.87351619 4.02051891 14.97072473 8.64306682 22 14 C18.50462849 15.16512384 15.6959107 16 12 16 C12.33 15.01 12.66 14.02 13 13 C12.34 12.67 11.68 12.34 11 12 C11.33 11.67 11.66 11.34 12 11 C9.03 9.35 6.06 7.7 3 6 C3 5.34 3 4.68 3 4 C2.34 3.67 1.68 3.34 1 3 C0.67 2.01 0.34 1.02 0 0 Z " fill="#2D2D2D" transform="translate(409,453)"/>
<path d="M0 0 C0.66 0 1.32 0 2 0 C2 9.9 2 19.8 2 30 C-0.31 29.67 -2.62 29.34 -5 29 C-5.33 27.68 -5.66 26.36 -6 25 C-6.99 25 -7.98 25 -9 25 C-8.67 24.34 -8.34 23.68 -8 23 C-7.2575 23.45375 -6.515 23.9075 -5.75 24.375 C-3.53069422 25.68640796 -1.32032178 26.88280803 1 28 C0.67 27.34 0.34 26.68 0 26 C-0.08510205 24.0406396 -0.10717656 22.07837206 -0.09765625 20.1171875 C-0.09443359 18.95058594 -0.09121094 17.78398438 -0.08789062 16.58203125 C-0.07951172 15.35871094 -0.07113281 14.13539063 -0.0625 12.875 C-0.05573242 11.02841797 -0.05573242 11.02841797 -0.04882812 9.14453125 C-0.0370133 6.09630608 -0.02054028 3.04817686 0 0 Z " fill="#303032" transform="translate(520,497)"/>
<path d="M0 0 C0.33 0.66 0.66 1.32 1 2 C-0.25 4.625 -0.25 4.625 -2 7 C-2.99 7 -3.98 7 -5 7 C-5 7.66 -5 8.32 -5 9 C-5.99 9.33 -6.98 9.66 -8 10 C-8 9.34 -8 8.68 -8 8 C-8.45890625 8.40992188 -8.9178125 8.81984375 -9.390625 9.2421875 C-10.00421875 9.78101563 -10.6178125 10.31984375 -11.25 10.875 C-12.15492188 11.67550781 -12.15492188 11.67550781 -13.078125 12.4921875 C-15.03165008 14.02483116 -16.66785362 15.14126393 -19 16 C-21.12597656 15.54638672 -21.12597656 15.54638672 -23 15 C-7.25512528 4.44191344 -7.25512528 4.44191344 0 0 Z " fill="#313132" transform="translate(781,186)"/>
<path d="M0 0 C0.33 1.32 0.66 2.64 1 4 C0.3709375 4.36351562 -0.258125 4.72703125 -0.90625 5.1015625 C-5.94173998 8.05915451 -10.67208609 11.12141447 -15.2109375 14.80078125 C-17.13785736 16.09240657 -18.73392673 16.57573518 -21 17 C-19.68115367 12.81533624 -18.25251253 11.03238481 -14.5625 8.6875 C-13.78003906 8.17574219 -12.99757813 7.66398437 -12.19140625 7.13671875 C-10 6 -10 6 -7 6 C-7 5.34 -7 4.68 -7 4 C-4.69 2.68 -2.38 1.36 0 0 Z " fill="#2D2D2D" transform="translate(632,284)"/>
<path d="M0 0 C-0.1875 1.8125 -0.1875 1.8125 -1 4 C-5.17857143 7 -5.17857143 7 -8 7 C-8 7.66 -8 8.32 -8 9 C-8.99 9.33 -9.98 9.66 -11 10 C-11.33 10.99 -11.66 11.98 -12 13 C-12.5775 12.814375 -13.155 12.62875 -13.75 12.4375 C-16.20692525 11.95976454 -17.64397534 12.24270636 -20 13 C-16.6811607 9.36428659 -12.99935849 6.86067641 -8.875 4.25 C-8.24207031 3.83878906 -7.60914063 3.42757813 -6.95703125 3.00390625 C-2.25656665 0 -2.25656665 0 0 0 Z " fill="#2E2E30" transform="translate(594,310)"/>
<path d="M0 0 C7.79987775 4.01078985 14.86330771 8.93702974 22 14 C18.98968256 14.93423645 18.13349732 15.04449911 15 14 C15 13.34 15 12.68 15 12 C14.443125 11.9175 13.88625 11.835 13.3125 11.75 C8.60487432 10.22320248 5.42276218 6.42276218 2 3 C1.34 2.67 0.68 2.34 0 2 C0 1.34 0 0.68 0 0 Z " fill="#39393A" transform="translate(354,417)"/>
<path d="M0 0 C0.2475 0.61875 0.495 1.2375 0.75 1.875 C2.20628639 4.35068687 3.37812506 4.95125002 6 6 C6.33 5.01 6.66 4.02 7 3 C7.33 3 7.66 3 8 3 C8 5.64 8 8.28 8 11 C4.57053707 9.38325319 1.43736948 7.42402323 -1.75 5.375 C-2.73484375 4.74335937 -3.7196875 4.11171875 -4.734375 3.4609375 C-5.48203125 2.97882812 -6.2296875 2.49671875 -7 2 C-4 0 -4 0 0 0 Z " fill="#2C2C2C" transform="translate(772,891)"/>
<path d="M0 0 C4.14994304 1.93020607 7.46388874 4.11527766 11 7 C12.31138904 7.70885894 13.63777017 8.39456452 15 9 C15 9.99 15 10.98 15 12 C15.99 12.33 16.98 12.66 18 13 C17.01 13.495 17.01 13.495 16 14 C10 10 4 6 -2 2 C-1.34 1.34 -0.68 0.68 0 0 Z " fill="#323232" transform="translate(689,840)"/>
<path d="M0 0 C1.65 0.99 3.3 1.98 5 3 C4.01 3.495 4.01 3.495 3 4 C2.01 3.67 1.02 3.34 0 3 C0 15.87 0 28.74 0 42 C-0.33 42 -0.66 42 -1 42 C-1.19207142 36.34034606 -1.37082399 30.68048989 -1.53710938 25.02001953 C-1.59559792 23.09347181 -1.65775936 21.16703201 -1.72363281 19.24072266 C-1.81755244 16.47578581 -1.89836327 13.71073297 -1.9765625 10.9453125 C-2.00875885 10.0806839 -2.0409552 9.2160553 -2.0741272 8.32522583 C-2.12723194 6.21734128 -2.07310184 4.10728582 -2 2 C-1.34 1.34 -0.68 0.68 0 0 Z " fill="#555555" transform="translate(269,361)"/>
<path d="M0 0 C6.86039071 0.62367188 11.3492976 5.3492976 16 10 C18.13309192 11.23512079 18.13309192 11.23512079 20 12 C20 12.66 20 13.32 20 14 C15.24059444 12.3734847 11.33385641 9.77746363 7.1875 7 C6.49462891 6.54882812 5.80175781 6.09765625 5.08789062 5.6328125 C3.35345087 4.47765853 1.67140344 3.24461741 0 2 C0 1.34 0 0.68 0 0 Z " fill="#363636" transform="translate(736,872)"/>
<path d="M0 0 C0.33 0.66 0.66 1.32 1 2 C2.32 2 3.64 2 5 2 C2.10002217 5.32960418 0.33123976 6.36616003 -4 7 C-5.299375 7.556875 -5.299375 7.556875 -6.625 8.125 C-9 9 -9 9 -12 8 C-10.37615858 6.85252535 -8.75088944 5.7070709 -7.125 4.5625 C-6.22007812 3.92441406 -5.31515625 3.28632813 -4.3828125 2.62890625 C-2 1 -2 1 0 0 Z " fill="#2E2F30" transform="translate(661,265)"/>
<path d="M0 0 C8.00180052 1.95962462 14.31994302 4.97991452 19 12 C14.70535427 11.09787201 11.44157065 8.93606821 7.8125 6.5625 C7.17119141 6.15451172 6.52988281 5.74652344 5.86914062 5.32617188 C1.1288849 2.25776981 1.1288849 2.25776981 0 0 Z " fill="#343434" transform="translate(581,772)"/>
<path d="M0 0 C0.78375 0.04125 1.5675 0.0825 2.375 0.125 C2.045 0.785 1.715 1.445 1.375 2.125 C0.385 2.125 -0.605 2.125 -1.625 2.125 C-1.625 2.785 -1.625 3.445 -1.625 4.125 C-8.375 8.125 -8.375 8.125 -10.625 8.125 C-10.625 8.785 -10.625 9.445 -10.625 10.125 C-11.615 9.795 -12.605 9.465 -13.625 9.125 C-8.6930886 2.68611567 -8.6930886 2.68611567 -4.625 2.125 C-2.625 0.125 -2.625 0.125 0 0 Z " fill="#353535" transform="translate(486.625,569.875)"/>
<path d="M0 0 C0.99 0 1.98 0 3 0 C1.54845769 3.62885578 -0.2400638 5.15432673 -3.5 7.25 C-4.2940625 7.77078125 -5.088125 8.2915625 -5.90625 8.828125 C-8 10 -8 10 -10 10 C-10.33 9.01 -10.66 8.02 -11 7 C-10.34 6.34 -9.68 5.68 -9 5 C-8.67 4.34 -8.34 3.68 -8 3 C-7.01 3 -6.02 3 -5 3 C-5 3.66 -5 4.32 -5 5 C-3.00016466 4.20882096 -3.00016466 4.20882096 -1 3 C-0.67 2.01 -0.34 1.02 0 0 Z " fill="#323232" transform="translate(559,524)"/>
<path d="M0 0 C0.66 0.33 1.32 0.66 2 1 C-0.18421053 5.80526316 -0.18421053 5.80526316 -2 8 C-7.8 9.6 -7.8 9.6 -11 8 C-7.37 5.36 -3.74 2.72 0 0 Z " fill="#383838" transform="translate(540,344)"/>
<path d="M0 0 C5.63098876 3.00064027 10.88084541 6.18786361 16 10 C15.01 10.66 14.02 11.32 13 12 C11.82780457 11.21654285 10.66236332 10.42297164 9.5 9.625 C8.8503125 9.18414063 8.200625 8.74328125 7.53125 8.2890625 C7.0259375 7.86367188 6.520625 7.43828125 6 7 C6 6.34 6 5.68 6 5 C5.38125 4.690625 4.7625 4.38125 4.125 4.0625 C2.75 3.375 1.375 2.6875 0 2 C0 1.34 0 0.68 0 0 Z " fill="#393939" transform="translate(758,678)"/>
<path d="M0 0 C0.99 0.66 1.98 1.32 3 2 C0.71439353 3.5306999 -1.57762667 5.04965044 -3.875 6.5625 C-4.52597656 7.00013672 -5.17695312 7.43777344 -5.84765625 7.88867188 C-7.52625497 8.98754836 -9.26023387 10.0007818 -11 11 C-11.66 10.67 -12.32 10.34 -13 10 C-12.34 9.01 -11.68 8.02 -11 7 C-10.01 7 -9.02 7 -8 7 C-8.33 6.34 -8.66 5.68 -9 5 C-8.443125 4.731875 -7.88625 4.46375 -7.3125 4.1875 C-4.80287477 2.89877353 -2.40665764 1.47073522 0 0 Z " fill="#3B3B3B" transform="translate(708,429)"/>
<path d="M0 0 C0.33 0.66 0.66 1.32 1 2 C-0.07869393 2.96355244 -1.16318743 3.92061417 -2.25 4.875 C-2.85328125 5.40867188 -3.4565625 5.94234375 -4.078125 6.4921875 C-6.03165008 8.02483116 -7.66785362 9.14126393 -10 10 C-11.32 9.67 -12.64 9.34 -14 9 C-9.38 6.03 -4.76 3.06 0 0 Z " fill="#373737" transform="translate(772,192)"/>
<path d="M0 0 C5.45111321 2.58210626 10.17518523 5.38138892 15 9 C14.01 10.485 14.01 10.485 13 12 C13 11.01 13 10.02 13 9 C10.03 8.01 7.06 7.02 4 6 C4 5.34 4 4.68 4 4 C2.68 3.67 1.36 3.34 0 3 C0 2.01 0 1.02 0 0 Z " fill="#393939" transform="translate(547,544)"/>
<path d="M0 0 C0.33 1.32 0.66 2.64 1 4 C0.34 4 -0.32 4 -1 4 C-1 4.99 -1 5.98 -1 7 C-1.99 7.33 -2.98 7.66 -4 8 C-4.99 7.34 -5.98 6.68 -7 6 C-7.66 5.67 -8.32 5.34 -9 5 C-7.87926138 4.16094435 -6.75325453 3.32892169 -5.625 2.5 C-4.99851562 2.0359375 -4.37203125 1.571875 -3.7265625 1.09375 C-2 0 -2 0 0 0 Z " fill="#2D2D2D" transform="translate(649,274)"/>
<path d="M0 0 C0.33 0.99 0.66 1.98 1 3 C-2.75 6 -2.75 6 -5 6 C-5 6.66 -5 7.32 -5 8 C-7.31 8.33 -9.62 8.66 -12 9 C-8.32442148 4.99027798 -4.81033104 2.54664585 0 0 Z " fill="#2C2C2C" transform="translate(725,223)"/>
<path d="M0 0 C-2.22604521 4.45209043 -9.66678409 6.88623614 -14 9 C-13.62609468 6.42665165 -13.3032769 5.26926453 -11.328125 3.515625 C-4.42124655 -0.69081977 -4.42124655 -0.69081977 0 0 Z " fill="#363638" transform="translate(316,682)"/>
<path d="M0 0 C4.9335117 2.35406142 9.51978158 4.86384711 14 8 C12 9 12 9 9.21484375 8.07421875 C8.13332031 7.61660156 7.05179688 7.15898438 5.9375 6.6875 C4.31134766 6.01267578 4.31134766 6.01267578 2.65234375 5.32421875 C0 4 0 4 -1 2 C-0.67 1.34 -0.34 0.68 0 0 Z " fill="#353535" transform="translate(662,617)"/>
<path d="M0 0 C0.86625 0.33 1.7325 0.66 2.625 1 C5.95718275 1.98731341 8.55159538 2.16420974 12 2 C12 3.98 12 5.96 12 8 C7.44328408 6.48109469 3.68276708 4.04597738 0 1 C0 0.67 0 0.34 0 0 Z " fill="#363636" transform="translate(552,753)"/>
<path d="M0 0 C1.32 0.33 2.64 0.66 4 1 C2.3790787 2.17232685 0.75313167 3.3377077 -0.875 4.5 C-1.77992188 5.1496875 -2.68484375 5.799375 -3.6171875 6.46875 C-6 8 -6 8 -8 8 C-8 6.68 -8 5.36 -8 4 C-6.03533587 2.93224776 -4.03144641 1.93446535 -2 1 C-1.34 1.33 -0.68 1.66 0 2 C0 1.34 0 0.68 0 0 Z " fill="#343535" transform="translate(426,608)"/>
<path d="M0 0 C1.98 0 3.96 0 6 0 C4.63160766 2.73678468 2.52625902 3.48272748 -0.078125 4.9140625 C-2.82363993 6.46539004 -5.39660172 8.22206947 -8 10 C-8.66 9.67 -9.32 9.34 -10 9 C-10 8.34 -10 7.68 -10 7 C-9.360625 6.87625 -8.72125 6.7525 -8.0625 6.625 C-7.381875 6.41875 -6.70125 6.2125 -6 6 C-5.67 5.34 -5.34 4.68 -5 4 C-3.66666667 3.33333333 -2.33333333 2.66666667 -1 2 C-0.67 1.34 -0.34 0.68 0 0 Z " fill="#404041" transform="translate(789,376)"/>
<path d="M0 0 C0.60328125 0.33773437 1.2065625 0.67546875 1.828125 1.0234375 C2.62734375 1.46945312 3.4265625 1.91546875 4.25 2.375 C5.43335938 3.03628906 5.43335938 3.03628906 6.640625 3.7109375 C8.73914197 4.85747823 10.8536077 5.94649552 13 7 C12.67 7.66 12.34 8.32 12 9 C7.97032739 7.78172689 4.39841445 6.52453645 1 4 C0.36328125 1.8984375 0.36328125 1.8984375 0 0 Z " fill="#383838" transform="translate(739,666)"/>
<path d="M0 0 C1.32 0.66 2.64 1.32 4 2 C1.71180854 3.50554634 -0.58021169 5.00457043 -2.875 6.5 C-3.85146484 7.14388672 -3.85146484 7.14388672 -4.84765625 7.80078125 C-9.7734375 11 -9.7734375 11 -12 11 C-11 8 -11 8 -8 6 C-7.154375 5.67 -6.30875 5.34 -5.4375 5 C-2.57950535 3.82748938 -1.38082251 2.76164502 0 0 Z " fill="#3E3E3E" transform="translate(592,503)"/>
<path d="M0 0 C3 1 3 1 5 3 C3.71186658 3.83878455 2.41936744 4.67086783 1.125 5.5 C0.40570312 5.9640625 -0.31359375 6.428125 -1.0546875 6.90625 C-3 8 -3 8 -5 8 C-5.33 7.01 -5.66 6.02 -6 5 C-5.195625 4.54625 -4.39125 4.0925 -3.5625 3.625 C-0.91143428 2.25274335 -0.91143428 2.25274335 0 0 Z " fill="#333333" transform="translate(773,385)"/>
<path d="M0 0 C5.45111321 2.58210626 10.17518523 5.38138892 15 9 C13 10 13 10 11.08984375 9.546875 C10.37957031 9.28390625 9.66929687 9.0209375 8.9375 8.75 C8.22464844 8.49734375 7.51179687 8.2446875 6.77734375 7.984375 C5 7 5 7 4 4 C1.99983534 2.79117904 1.99983534 2.79117904 0 2 C0 1.34 0 0.68 0 0 Z " fill="#3B3B3C" transform="translate(580,565)"/>
<path d="M0 0 C1.32 0.66 2.64 1.32 4 2 C-0.455 4.97 -0.455 4.97 -5 8 C-5.66 7.67 -6.32 7.34 -7 7 C-6.67 6.01 -6.34 5.02 -6 4 C-6.66 3.67 -7.32 3.34 -8 3 C-6.68 2.34 -5.36 1.68 -4 1 C-4 1.66 -4 2.32 -4 3 C-3.01 3 -2.02 3 -1 3 C-0.67 2.01 -0.34 1.02 0 0 Z " fill="#383838" transform="translate(499,560)"/>
<path d="M0 0 C3.93673644 1.31224548 6.22719294 2.91910327 9 6 C7.8553125 5.9690625 7.8553125 5.9690625 6.6875 5.9375 C3.89814214 5.87057159 3.89814214 5.87057159 1 7 C1 6.34 1 5.68 1 5 C0.34 5 -0.32 5 -1 5 C-1 4.34 -1 3.68 -1 3 C0.32 3.33 1.64 3.66 3 4 C3 3.34 3 2.68 3 2 C2.01 2 1.02 2 0 2 C0 1.34 0 0.68 0 0 Z " fill="#363636" transform="translate(643,605)"/>
<path d="M0 0 C0.66 0 1.32 0 2 0 C2 0.66 2 1.32 2 2 C2.66 2.33 3.32 2.66 4 3 C-0.455 5.97 -0.455 5.97 -5 9 C-5.66 8.67 -6.32 8.34 -7 8 C-5.53932124 4.14911964 -3.53704399 2.95468221 0 1 C0 0.67 0 0.34 0 0 Z " fill="#333334" transform="translate(516,548)"/>
<path d="M0 0 C1.44098611 0.76429661 2.87766054 1.53672555 4.3125 2.3125 C5.11300781 2.74175781 5.91351563 3.17101562 6.73828125 3.61328125 C8.83787272 4.90059554 10.35447721 6.18406708 12 8 C7.6305794 7.74297526 5.48177009 7.39976667 2.0625 4.5625 C0 2 0 2 0 0 Z " fill="#383838" transform="translate(395,444)"/>
<path d="M0 0 C0.66 0.33 1.32 0.66 2 1 C0 3 0 3 -2 5 C-2.6496875 5.8353125 -2.6496875 5.8353125 -3.3125 6.6875 C-5.94690509 8.73648174 -8.7525833 8.69363993 -12 9 C-9.67350413 6.49280542 -7.17318479 4.67816399 -4.3125 2.8125 C-3.50425781 2.28269531 -2.69601562 1.75289062 -1.86328125 1.20703125 C-1.24839844 0.80871094 -0.63351562 0.41039062 0 0 Z " fill="#404040" transform="translate(738,214)"/>
<path d="M0 0 C2.31 0 4.62 0 7 0 C4.373409 2.91843445 1.33023661 4.94517315 -2 7 C-2.66 7 -3.32 7 -4 7 C-3.625 5.0625 -3.625 5.0625 -3 3 C-2.34 2.67 -1.68 2.34 -1 2 C-0.67 1.34 -0.34 0.68 0 0 Z " fill="#3A3A3A" transform="translate(567,518)"/>
<path d="M0 0 C2.1875 -0.3125 2.1875 -0.3125 5 0 C7.87574545 2.47447864 9.89617347 4.8442602 12 8 C7.44328408 6.48109469 3.68276708 4.04597738 0 1 C0 0.67 0 0.34 0 0 Z " fill="#3B3B3B" transform="translate(638,809)"/>
<path d="M0 0 C1.65 0 3.3 0 5 0 C2.25604436 2.94721162 -0.38337216 5.19168608 -4 7 C-4.66 6.67 -5.32 6.34 -6 6 C-5.67 5.34 -5.34 4.68 -5 4 C-5.66 3.67 -6.32 3.34 -7 3 C-6.01 2.67 -5.02 2.34 -4 2 C-4 2.66 -4 3.32 -4 4 C-3.34 4 -2.68 4 -2 4 C-1.34 2.68 -0.68 1.36 0 0 Z " fill="#393939" transform="translate(283,700)"/>
<path d="M0 0 C0.33 0.66 0.66 1.32 1 2 C-0.98 2.99 -0.98 2.99 -3 4 C-3 4.66 -3 5.32 -3 6 C-6.26545761 7.88391785 -9.28111761 8.49287967 -13 9 C-10.96736172 6.88060277 -8.88825907 5.08239574 -6.5 3.375 C-5.61828125 2.73691406 -5.61828125 2.73691406 -4.71875 2.0859375 C-3 1 -3 1 0 0 Z " fill="#404040" transform="translate(564,329)"/>
<path d="M0 0 C3.59391114 1.33488128 6.75490696 2.96022723 10 5 C10.33 4.34 10.66 3.68 11 3 C11 4.32 11 5.64 11 7 C8.69 6.67 6.38 6.34 4 6 C3.67 4.68 3.34 3.36 3 2 C2.01 2 1.02 2 0 2 C0 1.34 0 0.68 0 0 Z " fill="#3F3F41" transform="translate(511,520)"/>
<path d="M0 0 C-2.74395564 2.94721162 -5.38337216 5.19168608 -9 7 C-9.66 6.67 -10.32 6.34 -11 6 C-7.34769214 1.25199978 -6.01084259 -0.15818007 0 0 Z " fill="#353536" transform="translate(655,466)"/>
<path d="M0 0 C2.1875 -0.3125 2.1875 -0.3125 5 0 C7.51896068 2.17546604 9.5050985 4.010197 11 7 C6.89188572 5.55007731 3.53144334 3.54592427 0 1 C0 0.67 0 0.34 0 0 Z " fill="#3A3A3A" transform="translate(673,832)"/>
<path d="M0 0 C4.58826282 1.93726652 6.80528594 3.48864333 9 8 C5.08158173 6.69386058 2.67359191 5.16870152 0 2 C0 1.34 0 0.68 0 0 Z " fill="#2F2F2F" transform="translate(606,786)"/>
<path d="M0 0 C4.60272162 1.77027754 7.7129243 3.18699218 11 7 C9.3489597 6.60446947 7.7041485 6.18286103 6.0625 5.75 C5.14597656 5.51796875 4.22945312 5.2859375 3.28515625 5.046875 C1 4 1 4 0.18359375 1.890625 C0.12300781 1.26671875 0.06242188 0.6428125 0 0 Z " fill="#3B3B3B" transform="translate(690,635)"/>
<path d="M0 0 C1.48280196 0.78483659 2.9611498 1.57809334 4.4375 2.375 C5.67306641 3.03628906 5.67306641 3.03628906 6.93359375 3.7109375 C9 5 9 5 10 7 C7.69 6.67 5.38 6.34 3 6 C3 5.34 3 4.68 3 4 C2.34 3.67 1.68 3.34 1 3 C0.67 2.01 0.34 1.02 0 0 Z " fill="#393939" transform="translate(409,453)"/>
<path d="M0 0 C0 0.99 0 1.98 0 3 C0.66 3.33 1.32 3.66 2 4 C0.35 4.66 -1.3 5.32 -3 6 C-3 5.34 -3 4.68 -3 4 C-4.32 4.33 -5.64 4.66 -7 5 C-6 2 -6 2 -4.0625 0.8125 C-2 0 -2 0 0 0 Z " fill="#353535" transform="translate(686,442)"/>
<path d="M0 0 C-4.455 2.97 -4.455 2.97 -9 6 C-9.66 5.67 -10.32 5.34 -11 5 C-10.67 3.68 -10.34 2.36 -10 1 C-8.71073008 0.63720544 -7.41846728 0.28503302 -6.125 -0.0625 C-5.40570312 -0.25972656 -4.68640625 -0.45695312 -3.9453125 -0.66015625 C-2 -1 -2 -1 0 0 Z " fill="#3A3A3C" transform="translate(736,415)"/>
<path d="M0 0 C4.67105792 1.55701931 8.08705685 4.08447373 12 7 C10 8 10 8 6.9375 7.25 C5.968125 6.8375 4.99875 6.425 4 6 C3.67 5.01 3.34 4.02 3 3 C2.01 2.67 1.02 2.34 0 2 C0 1.34 0 0.68 0 0 Z " fill="#3C3C3C" transform="translate(274,365)"/>
<path d="M0 0 C3.21852831 0.63065757 5.50801069 1.78020695 8.25 3.5625 C8.95640625 4.01753906 9.6628125 4.47257813 10.390625 4.94140625 C11.18726563 5.46541016 11.18726563 5.46541016 12 6 C8.59068103 7.13643966 7.99664544 6.86747764 4.8125 5.5625 C4.09707031 5.27503906 3.38164063 4.98757813 2.64453125 4.69140625 C1.83048828 4.34916016 1.83048828 4.34916016 1 4 C1.33 3.01 1.66 2.02 2 1 C1.34 0.67 0.68 0.34 0 0 Z " fill="#3E3E3E" transform="translate(601,579)"/>
<path d="M0 0 C0.33 1.32 0.66 2.64 1 4 C-2.22791555 6.1519437 -3.28400809 6.20086443 -7 6 C-7 5.34 -7 4.68 -7 4 C-4.69 2.68 -2.38 1.36 0 0 Z " fill="#363636" transform="translate(632,284)"/>
<path d="M0 0 C7.50769231 1.35384615 7.50769231 1.35384615 10 4.625 C10.495 5.800625 10.495 5.800625 11 7 C5.25 5.125 5.25 5.125 3 4 C3 3.34 3 2.68 3 2 C2.01 1.67 1.02 1.34 0 1 C0 0.67 0 0.34 0 0 Z " fill="#1D1D1D" transform="translate(709,649)"/>
<path d="M0 0 C3.11198065 1.49836105 6.0534615 3.19933758 9 5 C7.3125 5.6875 7.3125 5.6875 5 6 C2.25 4.75 2.25 4.75 0 3 C0 2.01 0 1.02 0 0 Z " fill="#3A3A3C" transform="translate(624,593)"/>
<path d="M0 0 C1.1446875 0.2475 1.1446875 0.2475 2.3125 0.5 C5.00856207 1.00159294 6.44020291 0.8532657 9 0 C6.64722731 2.72426311 4.37503669 3.8141763 1 5 C0.34 3.68 -0.32 2.36 -1 1 C-0.67 0.67 -0.34 0.34 0 0 Z " fill="#3C3C3D" transform="translate(463,581)"/>
<path d="M0 0 C-0.25 1.875 -0.25 1.875 -1 4 C-2.8125 5.3125 -2.8125 5.3125 -5 6 C-7.13671875 5.54296875 -7.13671875 5.54296875 -9 5 C-7.87926138 4.16094435 -6.75325453 3.32892169 -5.625 2.5 C-4.99851562 2.0359375 -4.37203125 1.571875 -3.7265625 1.09375 C-2 0 -2 0 0 0 Z " fill="#373737" transform="translate(791,180)"/>
<path d="M0 0 C0.33 1.98 0.66 3.96 1 6 C-2.37503669 4.8141763 -4.64722731 3.72426311 -7 1 C-4 0 -4 0 0 0 Z " fill="#393939" transform="translate(772,891)"/>
<path d="M0 0 C0.66 0.99 1.32 1.98 2 3 C-0.31 4.65 -2.62 6.3 -5 8 C-5.66 7.67 -6.32 7.34 -7 7 C-6.01 6.01 -5.02 5.02 -4 4 C-4.33 3.34 -4.66 2.68 -5 2 C-4.360625 1.855625 -3.72125 1.71125 -3.0625 1.5625 C-1.02454854 1.18992819 -1.02454854 1.18992819 0 0 Z " fill="#3C3C3C" transform="translate(389,631)"/>
<path d="M0 0 C3.65316671 1.24976756 4.78065836 1.67098753 7 5 C4.69 5 2.38 5 0 5 C-0.33 4.01 -0.66 3.02 -1 2 C-0.67 1.34 -0.34 0.68 0 0 Z " fill="#343434" transform="translate(424,463)"/>
<path d="M0 0 C2.3125 0.1875 2.3125 0.1875 5 1 C6.8125 3.5625 6.8125 3.5625 8 6 C5.0280615 4.87548273 2.66559313 3.77706209 0 2 C0 1.34 0 0.68 0 0 Z " fill="#323232" transform="translate(710,855)"/>
<path d="M0 0 C1.65 0 3.3 0 5 0 C5.103125 0.639375 5.20625 1.27875 5.3125 1.9375 C5.539375 2.618125 5.76625 3.29875 6 4 C6.99 4.33 7.98 4.66 9 5 C8.01 5.495 8.01 5.495 7 6 C5.83054208 5.19152271 4.66449539 4.37810888 3.5 3.5625 C2.8503125 3.11003906 2.200625 2.65757812 1.53125 2.19140625 C1.0259375 1.79824219 0.520625 1.40507813 0 1 C0 0.67 0 0.34 0 0 Z " fill="#3A3A3A" transform="translate(698,848)"/>
<path d="M0 0 C1.32 0.66 2.64 1.32 4 2 C2.02 3.32 0.04 4.64 -2 6 C-2.66 5.67 -3.32 5.34 -4 5 C-3 2 -3 2 0 0 Z " fill="#353535" transform="translate(409,618)"/>
<path d="M0 0 C1.98 0.99 3.96 1.98 6 3 C3.33440687 4.77706209 0.9719385 5.87548273 -2 7 C-1.34 4.69 -0.68 2.38 0 0 Z " fill="#38383A" transform="translate(297,380)"/>
<path d="M0 0 C0.33 0.99 0.66 1.98 1 3 C0.67 3.33 0.34 3.66 0 4 C0.66 4.66 1.32 5.32 2 6 C0.35 6.66 -1.3 7.32 -3 8 C-3.75 6.25 -3.75 6.25 -4 4 C-2.0625 1.75 -2.0625 1.75 0 0 Z " fill="#363638" transform="translate(798,368)"/>
<path d="M0 0 C1.65 0.99 3.3 1.98 5 3 C4.01 3.495 4.01 3.495 3 4 C2.01 3.67 1.02 3.34 0 3 C0 4.65 0 6.3 0 8 C-0.66 8 -1.32 8 -2 8 C-2.125 5.125 -2.125 5.125 -2 2 C-1.34 1.34 -0.68 0.68 0 0 Z " fill="#3D3D3D" transform="translate(269,361)"/>
<path d="M0 0 C-0.66 1.65 -1.32 3.3 -2 5 C-4.31 5.33 -6.62 5.66 -9 6 C-3.28571429 0 -3.28571429 0 0 0 Z " fill="#3D3D3D" transform="translate(809,168)"/>
<path d="M0 0 C0.99 0.33 1.98 0.66 3 1 C0.22719294 4.08089673 -2.06326356 5.68775452 -6 7 C-6.33 6.01 -6.66 5.02 -7 4 C-6.030625 3.71125 -5.06125 3.4225 -4.0625 3.125 C-0.89335797 2.35785318 -0.89335797 2.35785318 0 0 Z " fill="#3B3B3B" transform="translate(331,669)"/>
<path d="M0 0 C1.65 0.33 3.3 0.66 5 1 C2.64722731 3.72426311 0.37503669 4.8141763 -3 6 C-2.01 4.02 -1.02 2.04 0 0 Z " fill="#3D3D3E" transform="translate(340,662)"/>
<path d="M0 0 C1.32 0.66 2.64 1.32 4 2 C2.576875 2.928125 2.576875 2.928125 1.125 3.875 C-1.94445109 5.81970969 -1.94445109 5.81970969 -4 8 C-4.1875 5.625 -4.1875 5.625 -4 3 C-3.01 2.34 -2.02 1.68 -1 1 C-0.67 0.67 -0.34 0.34 0 0 Z " fill="#414141" transform="translate(545,533)"/>
<path d="M0 0 C1.65 0 3.3 0 5 0 C2.22719294 3.08089673 -0.06326356 4.68775452 -4 6 C-4.33 5.01 -4.66 4.02 -5 3 C-4.01 2.67 -3.02 2.34 -2 2 C-1.34 2.33 -0.68 2.66 0 3 C0 2.01 0 1.02 0 0 Z " fill="#404041" transform="translate(611,491)"/>
<path d="M0 0 C1.31602523 0.61754259 2.62773556 1.24428742 3.9375 1.875 C4.66839844 2.22304688 5.39929688 2.57109375 6.15234375 2.9296875 C8 4 8 4 9 6 C6.75 6.25 6.75 6.25 4 6 C1.6875 4.125 1.6875 4.125 0 2 C0 1.34 0 0.68 0 0 Z " fill="#3E3E3E" transform="translate(450,480)"/>
<path d="M0 0 C2.97 1.65 5.94 3.3 9 5 C5.86650268 6.04449911 5.01031744 5.93423645 2 5 C2 4.01 2 3.02 2 2 C1.34 2 0.68 2 0 2 C0 1.34 0 0.68 0 0 Z " fill="#404040" transform="translate(335,405)"/>
<path d="M0 0 C0.66 0 1.32 0 2 0 C2 0.66 2 1.32 2 2 C2.99 2 3.98 2 5 2 C4.67 2.99 4.34 3.98 4 5 C1.9375 5.6875 1.9375 5.6875 0 6 C0 4.02 0 2.04 0 0 Z " fill="#2E2E2E" transform="translate(270,366)"/>
<path d="M0 0 C0.66 0.33 1.32 0.66 2 1 C2 2.32 2 3.64 2 5 C1.4225 4.814375 0.845 4.62875 0.25 4.4375 C-2.20692525 3.95976454 -3.64397534 4.24270636 -6 5 C-2.25 1.125 -2.25 1.125 0 0 Z " fill="#3F3F3F" transform="translate(580,318)"/>
<path d="M0 0 C3.79303725 1.00193437 6.71536341 1.81024227 10 4 C9.67 4.66 9.34 5.32 9 6 C5.06326356 4.68775452 2.77280706 3.08089673 0 0 Z " fill="#3D3D3D" transform="translate(581,772)"/>
<path d="M0 0 C0.66 0.33 1.32 0.66 2 1 C1.875 2.875 1.875 2.875 1 5 C-2.0625 6.25 -2.0625 6.25 -5 7 C-3.70700306 4.11562221 -2.34058637 2.12780579 0 0 Z " fill="#1C1C1D" transform="translate(472,576)"/>
<path d="M0 0 C-0.1875 1.875 -0.1875 1.875 -1 4 C-3.5625 5.25 -3.5625 5.25 -6 6 C-5.6875 4.125 -5.6875 4.125 -5 2 C-2 0 -2 0 0 0 Z " fill="#2F2F2F" transform="translate(580,512)"/>
<path d="M0 0 C0.66 0.33 1.32 0.66 2 1 C-0.64 2.65 -3.28 4.3 -6 6 C-6.33 5.01 -6.66 4.02 -7 3 C-4.69631264 1.93347808 -2.35981813 0.93578995 0 0 Z " fill="#3F3F3F" transform="translate(751,403)"/>
<path d="M0 0 C0.99 0.33 1.98 0.66 3 1 C2.67 1.99 2.34 2.98 2 4 C-0.31 4.33 -2.62 4.66 -5 5 C-3.35 3.35 -1.7 1.7 0 0 Z " fill="#3C3C3C" transform="translate(704,236)"/>
<path d="M0 0 C0.66 0.33 1.32 0.66 2 1 C1.67 1.99 1.34 2.98 1 4 C-0.84765625 4.73046875 -0.84765625 4.73046875 -3.0625 5.1875 C-3.79597656 5.34605469 -4.52945313 5.50460938 -5.28515625 5.66796875 C-6.13400391 5.83232422 -6.13400391 5.83232422 -7 6 C-4.74259377 3.66475218 -2.7194239 1.81294927 0 0 Z " fill="#3F3F3F" transform="translate(798,174)"/>
<path d="M0 0 C4.51720311 -0.36625971 4.51720311 -0.36625971 6.8125 1.375 C8 3 8 3 8 5 C4.62496331 3.8141763 2.35277269 2.72426311 0 0 Z " fill="#3F3F3F" transform="translate(615,794)"/>
<path d="M0 0 C0.99 0.66 1.98 1.32 3 2 C1.02 3.32 -0.96 4.64 -3 6 C-3.66 5.67 -4.32 5.34 -5 5 C-5 4.34 -5 3.68 -5 3 C-2.5 1.375 -2.5 1.375 0 0 Z " fill="#3F3F40" transform="translate(351,656)"/>
<path d="M0 0 C1.31602523 0.61754259 2.62773556 1.24428742 3.9375 1.875 C4.66839844 2.22304688 5.39929688 2.57109375 6.15234375 2.9296875 C8 4 8 4 9 6 C6.36 5.34 3.72 4.68 1 4 C0.67 2.68 0.34 1.36 0 0 Z " fill="#434343" transform="translate(681,629)"/>
<path d="M0 0 C-2.52788007 2.79872437 -4.20411134 4.45773019 -8 5 C-8 4.01 -8 3.02 -8 2 C-4.77208445 -0.1519437 -3.71599191 -0.20086443 0 0 Z " fill="#3A3A3B" transform="translate(458,590)"/>
<path d="M0 0 C2.97 1.65 5.94 3.3 9 5 C6 6 6 6 3.375 5.3125 C2.199375 4.6628125 2.199375 4.6628125 1 4 C0.67 2.68 0.34 1.36 0 0 Z " fill="#444444" transform="translate(432,468)"/>
<path d="M0 0 C-2.31 1.65 -4.62 3.3 -7 5 C-7.66 4.67 -8.32 4.34 -9 4 C-8.67 3.01 -8.34 2.02 -8 1 C-2.59770115 -1.29885057 -2.59770115 -1.29885057 0 0 Z " fill="#404040" transform="translate(765,396)"/>
<path d="M0 0 C1.32 0.33 2.64 0.66 4 1 C4 1.66 4 2.32 4 3 C5.32 3.33 6.64 3.66 8 4 C8 4.66 8 5.32 8 6 C6.02 5.34 4.04 4.68 2 4 C2 3.34 2 2.68 2 2 C1.34 2 0.68 2 0 2 C0 1.34 0 0.68 0 0 Z " fill="#191919" transform="translate(270,364)"/>
<path d="M0 0 C0 1.66666667 0 3.33333333 0 5 C-2.31 5.33 -4.62 5.66 -7 6 C-2.25 1.125 -2.25 1.125 0 0 Z " fill="#424242" transform="translate(720,226)"/>
<path d="M0 0 C2.475 0.495 2.475 0.495 5 1 C4.67 1.99 4.34 2.98 4 4 C2.68 4 1.36 4 0 4 C0 2.68 0 1.36 0 0 Z " fill="#222222" transform="translate(273,703)"/>
<path d="M0 0 C3.37503669 1.1858237 5.64722731 2.27573689 8 5 C5.69 4.67 3.38 4.34 1 4 C0.67 2.68 0.34 1.36 0 0 Z " fill="#3A3A3B" transform="translate(701,642)"/>
<path d="M0 0 C3.37503669 1.1858237 5.64722731 2.27573689 8 5 C5.69 4.67 3.38 4.34 1 4 C0.67 2.68 0.34 1.36 0 0 Z " fill="#404042" transform="translate(480,500)"/>
<path d="M0 0 C1.65 0 3.3 0 5 0 C5 0.99 5 1.98 5 3 C5.99 3.33 6.98 3.66 8 4 C7.01 4.495 7.01 4.495 6 5 C3.98079663 3.69593116 1.98075027 2.36176581 0 1 C0 0.67 0 0.34 0 0 Z " fill="#1D1D1D" transform="translate(456,486)"/>
<path d="M0 0 C0.33 0.66 0.66 1.32 1 2 C-3.75 5 -3.75 5 -6 5 C-5.67 3.68 -5.34 2.36 -5 1 C-3.35 0.67 -1.7 0.34 0 0 Z " fill="#373737" transform="translate(672,454)"/>
<path d="M0 0 C0.99 0.33 1.98 0.66 3 1 C2.67 1.99 2.34 2.98 2 4 C0.02 4 -1.96 4 -4 4 C-2.68 2.68 -1.36 1.36 0 0 Z " fill="#2F2F2F" transform="translate(528,352)"/>
<path d="M0 0 C0.66 0.99 1.32 1.98 2 3 C-0.35438733 4.42944945 -1.48032433 5.08661261 -4.25 4.625 C-4.8275 4.41875 -5.405 4.2125 -6 4 C-4.02 2.68 -2.04 1.36 0 0 Z " fill="#3E3E3E" transform="translate(646,275)"/>
<path d="M0 0 C0.99 0.33 1.98 0.66 3 1 C2.34 1 1.68 1 1 1 C0.67 2.32 0.34 3.64 0 5 C-1.65 5 -3.3 5 -5 5 C-3.35 3.35 -1.7 1.7 0 0 Z " fill="#3B3B3B" transform="translate(654,269)"/>
</svg>
